<?xml version="1.0" encoding="utf-8"?>
<!-- Generator: Adobe Illustrator 27.3.0, SVG Export Plug-In . SVG Version: 6.00 Build 0)  -->
<svg version="1.1" id="Layer_1" xmlns="http://www.w3.org/2000/svg" xmlns:xlink="http://www.w3.org/1999/xlink" x="0px" y="0px"
	 viewBox="0 0 4500 5100" style="enable-background:new 0 0 4500 5100;" xml:space="preserve">
<style type="text/css">
	.st0{fill:#1D1C20;}
	.st1{fill:#EEEDEB;}
	.st2{fill:#F6AF37;}
	.st3{fill:#D4D3D2;}
	.st4{fill:#FBFAF9;}
	.st5{fill:#F06D26;}
	.st6{fill:#D44128;}
	.st7{fill:#972A20;}
	.st8{fill:#ED8F28;}
	.st9{fill:#EEC4A4;}
	.st10{fill:#EBA151;}
	.st11{fill:#87868A;}
	.st12{fill:#F4BE7F;}
	.st13{fill:#F8BA47;}
	.st14{fill:#F7BB5F;}
</style>
<g>
	<g>
		<path class="st0" d="M2765.73,4290.14c-6.96,1.73-26.8,3.43-33.96,3.62c-32.44,2.43-40.67,5.4-65.89,4.72
			c-17.24-0.47-34.27,0.12-51.61-3.04c-30.52-5.56-61.59-8.13-92.43-11.96c-4.91-1.11-9.83-2.22-14.74-3.34
			c-5.04,0.96-7.73-6.59-13.32-3.67c-34.69-7.76-69.4-15.42-104.06-23.3c-46.03-10.47-92.73-18.76-137.82-32.36
			c-42.35-12.77-85.56-21.59-128.09-33.35c-37.47-10.36-76.24-16.21-113.36-27.56c-23.61-7.22-48.07-9.39-71.43-16.75
			c-2.48-0.28-4.96-0.55-7.45-0.83c-1.46-3.2-4.12-3.87-7.3-3.48c-57.78-14.28-145.04-36-152.04-37.27
			c-9.45-1.71-33.54-7.49-42.22-10.81c-3.4-1.3-19.37-4.79-22.83-5.94c-8.31-2.76-18.58-3.65-23.03-5.75
			c-4.85-2.29-14.79-2.12-30.1-7.64c-5.73-1.25-11.17-1.39-16.98-4.58c-9.64-5.28-21.03-2.87-32.32-6.32
			c-11.53-3.53-21.64-4.37-30.91-10.91c-22.42-16.21-49.22-17.11-75.03-21.45c-48.05-11.1-96.95-19.52-143.87-34.21
			c-33.59-10.51-68.75-15.64-101.27-29.74c-5.12-2.22-11.72-1.05-17.63-1.44c-2.62-4.14-4.07-8.05-10.27-10.12
			c-15.25-5.09-30.57-6.79-46.37-6.52c-1.24-0.01-2.48-0.03-3.72-0.04c-2.59-0.42-5.18-0.83-7.77-1.25
			c-20.26-6.63-39.48-16.77-61.28-18.24l0.22-0.94c-11.2-10.32-24.83-13.44-39.55-13.29c-35.49-12.87-60.86-39.15-86.47-65.11
			c-0.99-1.24-1.98-2.48-2.98-3.72c-13.62-19.52-22.22-41.12-26.78-64.4c-4.22-11.72-2.08-24.04-3.45-36.03
			c2.89-11.61,5.88-23.22,4.5-35.37c13.06-27.32,29.53-51.95,54.07-70.59c11.08-8.41,21.49-17.68,32.2-26.57
			c2.9-0.4,6.3,0.24,7.57-3.6c1.24-0.93,2.47-1.86,3.71-2.79c1.41-1.01,2.81-2.01,4.22-3.02c0,0,0.42-0.36,0.42-0.36
			c10.52-3.52,18-11.67,26.34-18.21c21.93-17.19,46.91-30.46,66.11-51.15c22.04-10.53,38.24-28.82,57.42-43.14
			c1.45-0.6,2.9-1.21,4.35-1.81c0,0,0.89-0.57,0.89-0.57c8.87-5.26,18.43-9.7,23.63-19.42c13.67-3.93,24.65-12.33,35.32-21.25
			c23.6-12.95,47.05-26.13,68.32-42.8c2.46-1.52,4.91-3.05,7.37-4.57l0.07-0.06c8.98-3.59,17.24-8.41,24.73-14.52l0.48-0.19
			c1.79-0.4,3.58-0.8,5.37-1.21c18.59-1.61,35.13-9.96,52.4-15.89c9.95-3.42,4.33-7.12,0.14-10.77
			c15.58-10.3,28.32-22.2,24.51-43.42c10.68-22.95,9.86-48.2,14.57-72.35c1.08-8.16,6.15-14.74,8.25-22.8
			c9.82-37.81,17.51-76.03,24.88-114.35c2.75-14.26,5.97-28.45,9.47-42.54c6.21-25.02,12.49-50.03,19.3-74.89
			c8.83-32.25,9.83-66.06,20.07-98c2.56-4.35,1.73-8.88,0.73-13.42c12.1-41.65,19.72-84.23,26.45-126.99
			c11.44-38.88,19.5-78.56,28.8-117.95c7.09-30.02,12.26-60.44,20-90.28c3.93-35.05,15.07-68.6,21.49-103.13
			c13.42-57.3,26.44-114.68,36.74-172.65c5.89-17.86,5.62-36.61,7.98-54.97c6-15.86,3.44-16.6,7.08-24.34
			c1.92-4.08,7.08-28.2,7-32.4c5.54-13.79,1.82-14.33,3.63-22.12c3.88-7.56,4.19-16.52,4.65-18.47c0.3-4.53,0.16-4.21,1.55-8.3
			c1.89-5.56,14.39-70.34,23.14-105.11c4.85-19.26,10.47-39.09,14.23-57.89c4.49-22.5,10.06-45.16,13.94-67.96
			c4.68-12.16,7.22-24.79,8.15-37.77c0.43-1.7,0.85-3.39,1.28-5.09c3.34-29.65,12.12-57.48,16.15-87.82
			c0.99-7.44,4.69-14.26,7.04-21.39c5.92-27.97,13.53-55.7,17.38-83.95c6.31-46.21,23.23-90.05,28.71-136.34
			c0.36-6.79,4.75-18.5,6.74-25.01c6.05-19.83,8.21-33.53,11.08-53.19c4.91-33.52,13.71-66.16,19.36-99.49
			c8.47-49.94,17.25-99.91,28.62-149.25c8.11-35.19,16.43-70.32,23.17-105.78c8.27-43.49,15-87.27,23.61-130.69
			c6.11-30.8,10.64-62.68,22.53-91.33c10.77-25.96,31.41-47.21,62.09-53.25c2.58-0.51,4.6-1.72,10.21-4.13
			c5.87-1.92,7.47-2.97,17.05-5.19c18.15-3.47-1.89-1.07,35.25-8.16c2.38-0.37,9.44-0.92,11.84-1.1c6.48-0.5,5.41-0.04,11.86-0.81
			c2.77-0.33,9.14-0.72,13.98-0.55c0.95-0.35,5.24-0.23,8.02-0.27c4.11,0.19,5.82-0.42,9.92-0.23c27.63-0.63,10.86-0.3,10.86-0.3
			c3.67-0.01,7.34-0.03,11.01-0.04c20.34-0.94,11.67-1.12,20.34-0.94c8.66,0.17,9.68-0.58,16.12-0.66
			c10.77-0.13,50.33,7.83,60.98,9.41c36.79,5.43,35.1,4.21,70.27,17.05c33.02,9.31,40.16,38.35,46.4,65.42
			c9.14,39.66,16.57,79.82,23.88,119.86c5.77,31.57,10.14,63.59,16.46,95.08c5.86,29.16,10.92,58.62,18.31,87.36
			c9.9,38.49,14.49,77.92,23.95,116.49c9.43,38.45,12.81,78.4,22.55,116.76c20.2,79.56,34.91,160.27,53.68,240.1
			c4.32,18.39,10.12,33.55,12.46,45.07c1.65,8.13,6.86,24.36,8.5,31.49c6.47,28.09,17.52,76.74,18.35,84.48
			c0.89,8.22,0.53,8.99,3.97,22.46c0.66,2.26,1.32,4.52,1.98,6.78c1.18,19.95,6.34,39.04,12.65,57.88
			c6.04,24.44,6.23,50.27,17.55,73.45c5.39,28.99,6.17,58.57,13.88,87.4c11.1,41.52,16.34,69.14,25.84,111.08
			c0.55,2.41,2.93,14.47,5.53,23.44c1.3,4.48,1.3,13.13,6.7,30.76c6.51,21.26,4.08,21.36,9.54,45.29
			c2.71,12.51,5.74,23.96,7.13,31.57c0.95,5.23,2.33,13.1,3.47,17.8c11.41,47.07,22.98,94.11,34.55,141.14
			c0.27,1.11,3,15.61,3.57,16.64c7.35,32.18,15.49,75.82,17.43,82.98c2.59,9.57,3.99,18.1,5.81,26.81
			c5.39,25.79,11.61,51.41,18.02,76.97c1.39,5.55,4.91,10.56,7.45,15.81c0.46,1.12,1.65,5.52,1.6,6.71
			c0.13,0.96,0.94,4.45,1.45,6.99c0.13,0.64,0.78,3.66,0.78,3.66c-0.21,1.07,4.35,22.85,6.88,35.91
			c-0.43,8.31,4.87,14.91,6.74,22.53c0.1,1.83,0.2,3.66,0.3,5.49c1.29,7.48,2.57,14.96,3.86,22.44c1.17,2.36,2.33,4.71,3.5,7.07
			c4.72,22.86,9.54,45.7,14.13,68.58c9.56,47.66,19.2,95.3,28.34,143.04c1.89,9.9,9.06,18.1,8.35,28.62
			c6.32,22.92,7.62,47.09,16.98,69.29c1.27,7.18,2.17,15.7,3.01,21.65c0.42,2.33,0.83,4.66,1.25,6.99
			c6.66,37.62,13.98,71.93,24.26,108.77c2.87,6.17,2.91,14.75,6.76,36.81c0.35,5.22,5.98,27.51,6.08,28.03
			c8.55,44.94,15.17,90.27,27,134.56c1.48,5.53,4.73,7.76,9.59,8.96c35.03,8.69,53.81,16.21,90.02,18.75
			c5.87,0.72,34.02,7.15,41.13,7.96c15.24,1.73,15.3,4.66,29.54,7.15c7.6,1.33,11.86,4.46,21.19,4.08
			c5.85-0.24,14.48,3.53,20.23,4.41c45.39,7,91.42,11.7,131.63,37.03c28.22,17.78,51.12,38.98,60.88,73.22
			c7.28,25.53,9.35,51.04,10.51,77.02c0,0,0.08,8.6-1.26,17.63c-0.09,4.63-1.94,9.66-2.03,14.29c-4.12,14.04-8.24,28.08-12.36,42.11
			c-5.58,9.63-11.16,19.26-16.74,28.9c-24.38,32.46-48.75,64.91-73.12,97.37c-23.07,27.82-43.03,57.96-66.66,85.51
			c-37.59,43.84-76.28,86.48-118.32,126.04c-3.97,3.73-5.54,5.52-8.68,9.51c-4.09,5.2-7.06,7.91-11.4,11.93
			c-18.02,16.7-36.31,33.12-53.94,50.22c-39.74,38.55-83.34,71.79-131.23,99.72C2836.27,4263.11,2802.4,4281.02,2765.73,4290.14z
			 M1632.26,3048.96c-0.29-2.09-1.12-3.38-3.51-2.42c-1.22-0.4-2.45-0.79-3.67-1.19c-15.58-10.53-32.84-17.75-50.01-25.12
			l-0.11-0.07c-0.48-0.88-0.95-1.75-1.43-2.63c-0.84,0.94-1.69,1.88-2.53,2.81c-2.32,3.89-6.11,7.56-6.72,11.7
			c-6.73,45.9-18.05,90.77-28.87,135.81c-14.93,62.15-25.11,125.45-43.62,186.73c-5.7,18.86-0.23,31.75,14.81,41.87
			c47.09,31.66,96.45,59.3,149.11,80.58c44.59,18.02,90.79,31.21,137.39,43.05c41.84,10.63,84.09,19.11,126.76,25.48
			c31.94,4.77,63.81,11.38,95.93,13.13c35.46,1.93,70.51,9.83,106.23,7.31c43.21,1.63,86.43,2.03,129.65,0.31
			c5.37,0.26,10.86,1.38,16.09,0.64c49.56-7.04,99.64-8.6,149.4-13.45c59.38-5.79,117.16-18.38,174.98-31.3
			c48.94-10.94,96.56-27,143.07-45.66c51.3-20.58,99.83-46.57,143.77-80.58c9.61-7.44,16.98-15.61,13.49-28.44
			c-6.25-22.98-11.53-46.12-16.15-69.5c-9.48-47.93-20.61-95.54-30.28-143.44c-7.86-38.96-14.47-78.17-21.88-117.22
			c-1.98-10.45-5.98-17.84-18.63-9.85c-7.96,5.03-16.81,8.65-25.18,13.04c-43.38,22.79-88.58,41.94-135.71,54.43
			c-43.87,11.63-87.76,23.63-132.77,31.58c-31.78,5.61-63.73,10.48-95.55,15.83c-52,8.74-105.07,5.67-157.4,11.6
			c-33.64-0.11-67.27-0.22-100.91-0.33c-56.41,0.63-112.43-5.45-168.34-11.42c-33.61-3.59-67.28-7.72-100.36-16.2
			c-32.22-8.26-65.25-13.32-97.93-19.78c-1.12-4.33-4.49-3.35-7.52-3.2l-0.33-0.23c-12.61-5.24-25.6-9.02-39.24-10.38l-0.56-0.37
			c-14.79-6.53-29.54-13.16-45.96-14.55l-0.33-0.39c-1.91-5.86-7.04-2.09-10.45-3.48c-15.67-7.05-31.33-14.11-47-21.16
			c-1.27-3.77-4.39-3.33-7.36-3.23L1632.26,3048.96z M1040.96,3674.39c-0.9,1.1-1.79,2.2-2.69,3.3
			c-7.83,3.46-12.87,9.27-14.83,17.65c-1.18,1.52-2.35,3.05-3.53,4.57c-9.97,10.71-10.42,25.28-4.04,35.03
			c17.12,26.17,38.24,49.06,72.71,52.1c12.75,13.8,31.15,18.21,47.33,23.68c52.13,17.59,104.97,33.51,158.34,46.92
			c66.56,16.73,132.96,33.73,198.69,53.58c19.27,5.82,38.6,12.36,58.2,16.51c18.69,3.96,36.94,9.73,55.79,12.84
			c37.22,8.05,74.35,16.5,111.67,24.01c27.84,5.6,56.04,8.6,80.75,25.36c8.25,5.6,20.71,4.14,31.08-0.27
			c4.58,0.7,9.17,1.4,13.75,2.1c15.32,13.51,34.86,11.2,53.01,14.09c5.6-2.03,9.27,3.62,14.37,3.6
			c14.55,7.01,29.91,10.24,46.05,9.81c2.49,0.24,4.98,0.49,7.47,0.73l0.51,0.22c12.72,4.57,24.31,13.42,39.06,10.29
			c6.31,2.42,12.62,4.84,18.92,7.27c4.54,0.74,9.66-1,13.39,3.14c20.43,8.94,41.32,15.87,64.06,14.78c2.19,0.29,4.38,0.58,6.58,0.86
			c18.6,4.44,37.18,8.99,55.81,13.31c59.99,13.92,118.94,32.11,178.8,45.99c36.38,8.44,73.01,17.27,110.06,23.53
			c28.28,4.78,55.57,14.98,84.58,16.27c13.92,3.23,27.71,7.21,41.78,9.52c29.14,4.78,58.48,12.37,87.64,11.9
			c30.9-0.49,62-0.07,92.89-2.31c33.5-2.43,66.32-8.83,97.41-22.25c11.77-0.54,21.66-6.3,31.7-11.51
			c31.74-16.47,62.33-34.06,91.1-56.14c32.74-25.12,64.28-51.05,93.38-80.14c3.15-0.29,3.82-2.79,4.61-5.18
			c5.54-1.58,9.15-5.8,12.39-10.01c18.66-24.25,34.08-50.51,55.3-73.4c26.89-28.99,48.56-62.89,71.82-95.15
			c11.79-16.35,27.43-29.85,35.88-48.62c16.3-17.34,27.88-37.49,37.31-59.3c9.79-22.62,12.67-46.76,16.2-70.47
			c7.09-47.63-7.09-79.04-43.74-96.34c-30.03-14.18-62.87-19.26-95.94-21.83c-1.17-0.21-2.35-0.43-3.52-0.64
			c-5.19-5.97-11.87-2.7-17.99-2.91c-43.17-9.32-86.35-18.64-129.51-27.94c-11.96-2.4-22.25-8.19-32.2-15.03
			c-3.66-2.52-8.68-6.25-13.14-2.6c-4.27,3.49-1.86,8.99-0.81,13.53c1.08,4.65,2.55,9.25,4.33,13.68
			c18.76,46.7,16.48,93.71-3.63,138.48c-24.4,54.32-61.22,97.91-114.14,129.26c-81.76,48.44-169.85,78.78-260.88,102.85
			c-80.78,21.36-163.28,28.76-246.38,31.86c-80.31,3-160.52-1.85-240.74-3.96c-31.35-0.82-62.5-7.57-93.87-9.79
			c-30.69-2.17-60.66-8.63-91.04-12.44c-54.26-9.11-108.93-15.82-161.2-34.77c-39.82-14.44-80.72-25.89-120.74-39.84
			c-20.14-7.02-39.37-16.62-59.02-25.05c-1.76-9.05-10.18-11.26-16.51-14.84c-20.91-11.83-40.52-25.49-59.95-39.53
			c-44.22-31.97-73.43-72.81-79.39-128.5c-1.89-17.68-2.81-35.86-10.71-52.31c-1.93-4.01-0.9-10.81-6.52-11.68
			c-6.34-0.97-6.38,5.4-8.34,9.62c-2.35,5.06-5.64,9.79-12.77,11.8c0.21-12.56,6.35-21.6,10.51-31.29
			c8.39-19.53,22.66-36.99,21.15-60c1.83-9.13,7.33-17.43,6.11-27.24c1.58-5.6,3.48-10.98,5.91-16.37
			c3.42-7.58,17.8-13.96,10.53-21.11c-6.53-6.42-18.11,2.91-26.95,6.88c-2.46,1.1-4.28,3.61-6.39,5.47
			c-15.54,9.28-31.08,18.55-46.62,27.83c-1.24,1.13-2.48,2.26-3.71,3.39l0.23-0.29c-13.91,2.71-23.78,11.23-31.95,22.19l-0.14,0.13
			c-4.29,1.24-8,3.35-10.69,7.01l-0.15,0.11c-28.21,15.32-54.52,33.43-79.41,53.65l0.04-0.02c-5.73,2.36-11,5.33-14.45,10.76
			c-52.03,34.2-101.76,71.61-151.93,108.41c-6.61,4.85-11.6,11.9-17.35,17.93c-2.86,1.18-4.36,3.3-4.41,6.41c0,0,0.26-0.51,0.26-0.5
			c-3.89,0.47-6.37,2.41-6.81,6.49l-1.12-0.11C1040.56,3673.41,1040.96,3674.39,1040.96,3674.39z M2590.23,2006.07l-0.59,0.31
			c0.99-17.98-7.64-34.12-9.85-51.38c-1.63-12.7-6.69-11.83-14.93-6.49c-88.41,38.1-181.49,55.19-276.98,61.41
			c-27.3,0.03-54.62-0.56-81.89,0.34c-16.14,0.53-32.65-4.74-48.45,2.42c-33.75-5.18-67.94-5.02-101.88-9.65
			c-45.89-6.26-91.03-15.72-136.31-24.66c-35.45-7-68.87-20.86-102.68-33.22c-12.27-4.48-20.18-5.32-23.05,12.2
			c-2.23,13.64-5.11,27.57-8.43,41.22c-10.43,42.84-22.27,85.47-29.83,128.83c-9.41,54.02-24.48,106.88-31.51,161.44
			c-1.41,10.97,4.43,16.03,7.99,17.42c31.6,12.33,63.16,25.87,96.01,33.67c58.25,13.84,116.53,27.4,176.48,34.26
			c52.32,5.99,104.22,14.49,157.07,13.45c29.02,5.34,58.06,4.64,87.1,0.17c45.45-1.82,90.69-4.53,135.94-10.6
			c59.35-7.97,117.92-18.65,175.01-36.43c25.6-7.98,51.13-17.06,73.58-32.57c11.06-7.65,22.24-16.08,18.5-31.56
			c-6.57-27.2-15.3-53.89-21.54-81.15c-9.99-43.65-23.95-86.57-26.08-131.79C2602.33,2043.78,2604.46,2022.99,2590.23,2006.07z
			 M2011.28,873.39c-0.41,5.9-0.83,11.8-1.24,17.71c-5.04,5.45-3.45,11.91-2.77,18.23c-0.33,2.18-0.65,4.35-0.98,6.53
			c-2.63,2.19-3.41,4.8-1.84,7.96c-0.56,3.48-1.12,6.96-1.69,10.44c-3.95,3.12-3.63,7.05-2.16,11.21c-0.38,3.47-0.76,6.94-1.14,10.4
			c-5.52,5.29-3.59,11.86-3.12,18.17c-0.26,2.2-0.52,4.39-0.77,6.59c-4.76,4.1-3.45,9.57-3.35,14.77
			c-0.15,6.28-0.35,12.54-3.59,18.21c-0.44,1.19-0.38,2.35,0.2,3.48c-0.26,2.34-0.51,4.67-0.77,7.01
			c-4.73,3.11-8.03,7.43-8.68,12.98c-6.86,59-23.8,116.09-33.12,174.61c-5.59,32.03-12.08,63.93-16.52,96.12
			c-4.37,31.62-14.71,62.13-16.72,94.12c-2.54,2.25-3.37,4.61-0.43,7.19c-0.26,2.14-0.52,4.29-0.78,6.43
			c-2.11,4.83-6.83,9.2-2.6,15.12c-0.37,2.17-0.73,4.34-1.1,6.5c-4.59,4.5-6.7,9.62-3.95,15.94
			c-12.17,35.15-15.96,72.28-25.74,108.13c-9.51,34.88-14.3,71.24-22.45,106.74c-9.31,40.51-16.62,81.48-24.8,122.26
			c-2.16,13.95-2.04,28.78-6.97,41.68c-9.75,25.52-9.69,52.94-17.92,78.56c-2.66,8.28,3.12,10.24,8.65,12.78
			c21.64,9.93,44.67,16.61,67.04,24.01c15.47,5.12,30.99,16.14,49.21,11.76c12.1,7.82,26.34,7.33,39.71,10.21
			c23.04,2.14,44.51,13.25,68.16,11.89c32.12,7.13,64.63,10.71,97.53,10.78c9.45,5.06,19.33,3.32,29.19,1.84
			c27.26,1.78,54.52,1.28,81.79,0.17c12.34,1.5,24.69,3.09,36.69-1.95c43.44,0.36,85.72-7.93,127.92-16.97
			c25.19-5.4,51.15-8.11,73.74-22.12c22.77-2.68,42.21-14.84,63.3-22.27c16.15-5.69,22.21-14.69,14.46-32.24
			c-5.13-11.62-6.14-25.06-8.99-37.68c-10.67-47.26-20.45-94.74-32.26-141.72c-10.71-42.62-17.28-86.07-28.52-128.63
			c-10.81-40.92-16.38-83.2-24.95-124.75c-9.55-46.32-18.44-92.76-29.29-138.85c-11.32-48.07-18.32-97.13-28.18-145.56
			c-10.51-51.61-24.18-102.65-32.75-154.56c-8.27-50.1-16.28-100.25-26.22-150.03c-3.64-18.2-5.07-40.94-27.73-45.72
			c-52.26-11.02-105.07-19.47-158.89-17.46c-22.23-2.45-44.19-2.07-65.38,6.3c-2.23,0.26-4.45,0.52-6.68,0.78
			c-22.72,2.08-44.1,8.37-61.88,23.04c-6.55,5.41-19.74,5.51-17.61,19.09c-0.4,0.93-0.69,1.89-0.86,2.88
			C2010.8,867.6,2010.11,870.24,2011.28,873.39z M1879.49,2371.67c-44.19-13.05-89.63-21.61-132.64-39.04
			c-29.46-11.93-31.2-9.94-35.81,20.96c-0.61,4.11-1.93,8.11-2.83,12.19c-9.99,45.46-19.96,90.92-29.93,136.38
			c-7.65,37.26-15.05,74.57-23.01,111.76c-14.27,66.66-28.71,133.29-43.39,199.87c-12.08,54.78-24.74,109.44-36.81,164.22
			c-1.83,8.29-0.43,14.73,8.72,20.55c76.73,48.86,161.85,76.19,249.25,97.09c97.19,23.24,196.29,32.78,295.99,36.74
			c9.77,4.27,19.68,3.78,29.67,0.89c35.52,2.27,71.06,1.44,106.6,0.82c8.92,1.34,17.9,3.46,26.24-2.16
			c20.21,0.73,40.26-0.45,60.21-4.06c30.06-5.43,61.22-1.02,90.94-9.86c7.61-1.2,15.2-0.48,23.02-2.23
			c30.1-6.72,60.36-12.85,90.58-18.95c46.76-9.45,92.16-22.72,136.42-40.01c37.48-14.64,71.95-35.54,107.64-53.89
			c8.2-4.21,11.12-9.78,8.99-18.88c-17.49-74.65-32.13-149.94-51.88-224.08c-6.06-22.75-12.51-45.63-15.61-68.87
			c-5.95-44.6-19.15-87.51-28.25-131.36c-9.7-46.79-22.84-92.86-33.68-139.44c-7.3-31.36-13.33-63.02-19.7-94.59
			c-1.88-9.33-6.63-14.84-12.93-4.82c-8.91,14.18-23.29,17.02-36.69,22.16c-27.41,10.52-53.98,22.85-83.57,27.83
			c-27.42,4.62-54.12,13.5-81.14,20.5c-16.04-1.85-30.69,7-46.61,6.01c-3.33-4.98-4.23,1.1-6.4,1.4
			c-32.27,3.34-64.48,8.61-96.81,9.59c-53.51,1.63-107.31,3.72-160.58,1.83c-50.12-1.78-100.62-9.19-150.3-18.97
			c-14.66,0.05-28.52-4.75-42.79-7.13C1921.17,2381.33,1900.14,2377.45,1879.49,2371.67z M2857.71,3739.95
			c9.46-1.84,14.99-9.67,21.81-15.12c47.44-37.94,72.21-87.44,74.23-148.29c1.06-32.22-13.27-61.48-17.16-92.73
			c-1.58-12.71-7.04-23.32-17.42-31.16c2.6,52.5,35.67,100.35,23.22,154.87c-6.18-14.89-6-33-17.44-44.13
			c-9.91-9.65-11.28-19.22-10.68-31c0.12-2.35-0.04-4.92-0.86-7.09c-11.31-29.9-13.28-61.18-13.83-92.65
			c-0.06-3.4,0.05-9.14,1.68-9.8c5.34-2.13,11.1-2.39,4.13-9.57c-5.31-5.47-9.94-2.55-14.12,1.05c-8.13,7-15.92,14.39-23.85,21.62
			c-3.39,1.11-7.24,1.53-10.09,3.43c-58.67,39.11-121.31,69.46-189.91,86.91c-43.19,10.99-85.94,24.17-129.6,32.75
			c-44.6,8.76-90.07,13.09-135.15,19.36c-38.34,3.32-76.62,8.14-115.03,9.56c-43.04,1.6-86.19,0.13-129.29-0.01
			c-3.7-3.24-7.56-3.1-11.54-0.55c-16.9-3.28-34-0.6-51.05-1.6c-61.61-3.6-122.49-11.66-183.21-22.32
			c-68.06-11.96-135.89-25.01-201.82-45.74c-78.91-24.81-153.31-59.09-217.74-112.23c-6.53-5.39-8.74-4.89-12.31,3.28
			c-4.76,10.89-2.4,22.28-5.33,33.24c-10.99,41.04-14.75,83.29-19.42,125.36c-5.62,11.69-3.64,23.93-2.64,36.1
			c0.32,4.43,0.64,8.87,0.95,13.3c-1.67,3.04-1.06,5.62,1.59,7.78c4.99,24.93,18.15,44.92,36.79,61.84
			c36.81,33.4,79.53,57.48,123.9,78.97c53.97,26.14,111.61,42.1,168.72,59.24c34.61,10.39,69.83,19.41,105.33,26.07
			c39.47,7.4,79.75,10.39,119.36,17.18c56.28,9.65,112.67,16.48,169.87,15.03c11.91,2.06,23.85,1.88,35.79,0.31
			c54,0.84,108.03,2.52,161.86-3.93c33.66,4.59,66.9-3.18,99.51-7.54c82.73-11.06,163.87-31.03,242.32-60.36
			C2768.2,3793.06,2816.63,3773.57,2857.71,3739.95z M2633.98,4211.25c-4.54-2.05-5.96-3.16-7.47-3.31
			c-76.29-7.35-150.95-23.77-224.91-42.8c-88.45-22.76-177.81-41.36-266.87-61.31c-21.09-4.72-41.26-12.45-63.52-14.67
			c-15.42-1.54-31.53-12.36-48.02-16.59c-34.64-8.91-69.81-15.76-104.41-24.79c-121.9-31.78-243.56-64.49-365.5-96.12
			c-91.7-23.79-182.81-49.72-275.81-68.77c-50.46-10.33-99.67-27.61-148.59-44.25c-28.55-9.71-57.24-19.77-83.55-35.72
			c-23.14-14.03-39.5-34.54-57.69-55.34c-6.51,13.8-3.81,24.73,1.79,35.85c26.22,52,75.49,74.33,125.66,91.77
			c65.65,22.82,134.77,34.1,201.7,53.32c97.96,28.14,196.99,52.55,295.33,79.4c133.1,36.34,267.58,67.1,401.61,99.6
			c57.99,14.06,115.73,30.53,175.2,37.33c52.89,6.05,100.57,31.75,154.29,35.81c55.21,4.18,107.62,26.99,163.14,31.34
			C2547.72,4215.25,2589.27,4223.3,2633.98,4211.25z"/>
		<path class="st1" d="M2810.53,2768.71c2.18,0.4,4.37,0.81,6.55,1.21c-1.02,1.95-2.03,3.9-3.05,5.86
			C2812.86,2773.42,2811.69,2771.06,2810.53,2768.71z"/>
		<path class="st2" d="M2748.06,840.09c-0.94,1.44-1.88,2.88-2.83,4.32C2744.83,842.1,2745.96,840.78,2748.06,840.09z"/>
		<path class="st0" d="M1190.95,3952.01c-4.19-1.79-8.37-3.58-12.56-5.36c0,0.01,0.99-0.51,0.99-0.51
			c15.8-0.27,31.13,1.44,46.37,6.52c6.2,2.07,7.65,5.98,10.27,10.12C1220.99,3959.19,1205.97,3955.6,1190.95,3952.01z"/>
		<path class="st3" d="M3395.75,4345.4c0.99,0.44,2.51,0.66,2.8,1.37c0.28,0.7-0.71,1.9-1.14,2.89c-0.99-0.43-2.53-0.65-2.81-1.36
			C3394.32,4347.59,3395.31,4346.39,3395.75,4345.4z"/>
		<path class="st2" d="M1646.32,754.44c-0.94-1.37-1.89-2.73-2.83-4.1C1645.54,750.95,1646.96,751.98,1646.32,754.44z"/>
		<path class="st4" d="M1625.08,3045.35c1.22,0.4,2.45,0.79,3.67,1.19c1.17,0.81,2.34,1.61,3.51,2.42c0,0,0.4,0.3,0.4,0.3
			c1.46,3.33,4.35,3.41,7.36,3.23c15.67,7.05,31.33,14.11,46.99,21.16c2.09,5.31,6.42,3.95,10.45,3.48c0,0,0.33,0.39,0.33,0.39
			c13.95,9.18,28.76,15.62,45.96,14.55c0,0,0.56,0.37,0.56,0.37c10.93,11.55,25.16,10.69,39.24,10.38c0,0,0.33,0.23,0.33,0.23
			c1.59,3.23,4.4,3.58,7.52,3.2c32.68,6.46,65.72,11.52,97.93,19.78c33.08,8.48,66.75,12.62,100.36,16.2
			c55.91,5.97,111.93,12.05,168.34,11.42c33.62,5.64,67.26,5.13,100.91,0.33c52.33-5.93,105.41-2.87,157.4-11.6
			c31.82-5.35,63.77-10.21,95.55-15.83c45-7.95,88.9-19.95,132.77-31.58c47.13-12.49,92.33-31.64,135.71-54.43
			c8.37-4.4,17.22-8.02,25.18-13.04c12.65-7.99,16.65-0.6,18.63,9.85c7.42,39.05,14.02,78.26,21.88,117.22
			c9.67,47.9,20.8,95.5,30.28,143.44c4.62,23.38,9.9,46.52,16.15,69.5c3.49,12.83-3.87,21-13.49,28.44
			c-43.94,34-92.48,60-143.77,80.58c-46.51,18.65-94.13,34.72-143.07,45.66c-57.82,12.92-115.6,25.51-174.98,31.3
			c-49.77,4.85-99.84,6.41-149.4,13.45c-5.23,0.74-10.72-0.38-16.09-0.64c-4.94-4.9-11.2-2.8-16.88-2.85
			c-29.6-0.22-59.21-0.36-88.8,0c-7.98,0.1-16.53-3.34-23.96,2.54c-35.72,2.53-70.77-5.37-106.23-7.31
			c-32.12-1.75-64-8.36-95.93-13.13c-42.68-6.37-84.93-14.85-126.76-25.48c-46.6-11.84-92.8-25.04-137.39-43.05
			c-52.66-21.28-102.02-48.91-149.11-80.58c-15.04-10.12-20.51-23-14.81-41.87c18.51-61.28,28.69-124.57,43.62-186.73
			c10.82-45.03,22.14-89.91,28.87-135.81c0.61-4.14,4.4-7.81,6.72-11.7c1.32-0.06,2.64-0.12,3.96-0.19c0,0,0.11,0.07,0.11,0.07
			C1587.06,3037.89,1605.69,3042.38,1625.08,3045.35z"/>
		<path class="st5" d="M2442.68,3118c-29.71,8.85-60.87,4.43-90.94,9.86c-19.95,3.61-40,4.79-60.22,4.06
			c-8.83-0.28-17.78-2.04-26.24,2.16c-35.54,0.62-71.08,1.44-106.6-0.83c-9.82-2.61-19.73-2.26-29.67-0.89
			c-99.7-3.95-198.8-13.5-295.99-36.74c-87.4-20.9-172.52-48.23-249.25-97.09c-9.15-5.82-10.55-12.26-8.72-20.55
			c12.08-54.78,24.73-109.44,36.81-164.22c14.68-66.57,29.12-133.2,43.39-199.87c7.96-37.19,15.36-74.5,23.01-111.76
			c17.61-4.25,19.51-2.44,16.06,14.03c-3.99,19.07-4.6,38.7-11.72,57.29c-6.05,15.78-5.18,34.08-9.79,49.2
			c-7.06,23.17-3.71,47.06-11.19,69.58c-2.15,6.48-0.08,13.63,8.68,14.85c7.4,1.04,17.83,0.08,18.19-7.26
			c0.99-20.16,12.33-10.69,21.88-7.69c0-3.85,0.46-6.22-0.09-8.33c-1.44-5.61-3.97-16.19,2.51-14.29
			c13.95,4.1,28.07-6.57,40.65,2.63c1.08,0.79-0.52,5.51-1.17,8.34c-2.68,11.71,2.58,14.19,12.72,11.02
			c7.01-2.19,14.85-4.74,19.75,2.38c4.72,6.84,5.19,13.85,0.54,22.94c-12.44,24.3,3.01,44.83,30.5,40.37
			c11.21-1.82,18.46-1.59,21.76,10.92c16.61-20.87,14.7-30.77-6.6-41.99c-3.11-1.64-7.16-2.5-9.15-5.01
			c-3.74-4.71-2.41-10.18,0.55-15.13c1.55-2.59,3.89-6,6.71-2.74c10.12,11.64,28.62,10.41,36.85,26.2
			c4.65,8.92,15.05,14.97,23.21,21.9c4.81,4.09,8.85,3.76,13.22-2.17c15.21-20.64,19.64-20.93,37.27-4.42
			c-22.86-1.61-33.9,9.64-33.85,32.66c0.02,8.64,4.77,14.42,7.92,21.36c4.04,8.89,5.06,23.22,17.2,21.12
			c8.04-1.39,2.36-16.06,7.03-23.78c3.12-5.16-5.16-27.65,13.2-8c3,3.22,7.04,1.69,8.85-2.06c5.67-11.79,14.63-10.14,27.74-2.35
			c-7.33-14.07-21.05-25.05-0.42-32.62c1.16-0.43,1.43-4.36,1.43-6.66c0.03-10.31,3.4-18.47,12.84-23.95
			c4.39-2.54,6.87-11.21,2.25-10.86c-18.56,1.37-16.61-19.91-29.47-24.01c-4.78-1.52-8.74-5.9-5.45-11.16
			c2.95-4.72,9.78-4.39,12.88-1.57c4.91,4.48,14.43,4.86,14.26,14.32c-0.14,8.31,4.98,10.73,11.77,8.99
			c9.42-2.41,7.91-11.79,5.08-16.09c-6.24-9.48-6.29-20.22-9.6-30.19l-0.06,0.06c10.88-3.94,15.64-15.88,7.41-21.69
			c-12.52-8.84-17.68-14.86,0.14-22.76c4.44-1.97,3.72-7.12,1.85-11.13c-1.7-3.63-4.79-5.33-8.8-3.86
			c-6.46,2.37-12.82,2.66-19.17-0.21c-4.64-2.09-12-1.38-12.38-8.29c-0.38-6.9,3.76-14.35,9.75-15.76
			c8.41-1.98,19.07-6.32,25.49,5.1c1.48,2.64,3.07,5.72,6.53,4.78c4.67-1.27,4.42-6.22,3.23-8.91c-6.16-13.89,0.1-25.24,6.03-37.09
			c5.49-10.96,8.48-23.94,4.45-34.78c-7.08-19.04-3.58-35.48,5.07-52.27c4.75-9.22,1.88-15.59-7.47-20.15
			c-10.45-5.1-21.11-7.43-32.79-7.03c-10.42,0.35-17.16-7.23-19.6-15.71c-2.59-9,10.22-2.83,12.25-8.96
			c49.67,9.78,100.17,17.19,150.3,18.97c53.28,1.89,107.07-0.19,160.58-1.83c32.34-0.99,64.55-6.25,96.81-9.59
			c-3.39,11.52-7.94,22.8-7.22,35.16c-5.39,6.42-3.63,14.69-5.4,22.03c-0.75,3.13,0.95,7.45,4.48,8.94
			c4.43,1.87,5.86-2.63,8.12-5.12c8.33-9.17,3.26-17.48-1.64-25.81c7.64-11.12,0.49-25.48,8.06-36.61
			c15.92,0.98,30.58-7.87,46.62-6.01c0.76,8.56,1.96,16.83,13.83,10.65c8.65-4.51,12.82-2,11.42,7.41
			c-1.39,9.33,3.99,16.09,7.67,23.29c7.44,14.59,15.69,28.62,5.09,45.17c-2.25,3.51-0.05,7.15,1.86,10.06
			c4.65,7.1,2.82,13.55-0.99,20.15c-10.33,17.92-17.74,37.09-13.08,57.79c3.46,15.38,8.07,30.54,11.47,46.01
			c1.22,5.56,2.8,10.34-0.59,15.22c-6.11,8.79-12.3,16.78,3.61,22.79c5.03,1.9,2.57,8.41,0.23,12.82
			c-7.71,14.53,4.5,32.38-7.68,46.35c-1.01,1.16-0.23,5.1,1.02,6.8c10.67,14.62,5.44,28.1-2.23,41.71
			c-3.7,6.57-5.66,17.35,0.37,19.47c14.03,4.94,9.6,9.54,3.1,16.86c-4.04,4.56-0.48,10.21-0.67,15.29
			c-0.81,21.59,11.53,42.15,7.91,62.7c-2.86,16.25-4.89,31.21-5.34,47.96c-0.85,31.28-0.6,62.64-0.78,93.96
			c-0.04,7.12,0.22,13.75,4.21,20.6c5.75,9.85-9.63,45-20.78,47.05c-19.38,3.56-28.93,12.41-23.05,32.91
			C2442.83,3115.54,2442.64,3116.81,2442.68,3118z M2093.68,2983.75c2.73,4.19,5.23,12.15,11.93,9.71
			c11.22-4.08,18.09,3.21,26.51,6.73c5.49,2.29,10.75,5.13,16.22,7.48c3.16,1.36,5.84,0.03,7.68-2.67c1.63-2.39,0.62-5.75-1.27-6.19
			c-19.12-4.47-33.22-20.11-52.7-23.49C2096.9,2974.43,2094.69,2978.06,2093.68,2983.75z"/>
		<path class="st4" d="M2603.89,2063.7c2.14,45.22,16.09,88.13,26.08,131.79c6.24,27.26,14.96,53.95,21.54,81.15
			c3.74,15.48-7.44,23.91-18.5,31.56c-22.45,15.51-47.98,24.6-73.58,32.57c-57.08,17.79-115.66,28.47-175.01,36.43
			c-45.25,6.07-90.5,8.78-135.94,10.6c-29.03-0.06-58.07-0.11-87.1-0.17c-52.86,1.04-104.76-7.46-157.07-13.45
			c-59.95-6.86-118.23-20.43-176.48-34.26c-32.85-7.8-64.4-21.34-96.01-33.67c-3.56-1.39-9.4-6.45-7.99-17.42
			c7.03-54.56,22.09-107.42,31.51-161.44c7.56-43.36,19.4-85.99,29.83-128.83c3.32-13.65,6.2-27.58,8.43-41.22
			c2.87-17.52,10.79-16.69,23.05-12.2c33.81,12.36,67.23,26.22,102.68,33.22c45.29,8.94,90.42,18.4,136.31,24.66
			c33.94,4.63,68.13,4.47,101.88,9.65c4.16,0.05,8.32,0.15,12.48,0.14c39.31-0.11,78.71,3.75,117.86-2.89
			c95.49-6.22,188.57-23.31,276.98-61.41c4.96,14.87,14.41,28.02,15.91,44.35c0.45,4.86,0.89,12.38,8.88,13.52l0.59-0.31
			C2591.43,2026.07,2596.42,2045.18,2603.89,2063.7z M2247.85,2135.74l0.1,0.12c-0.97,14.03,2.67,25.84,17.25,34.36
			c-0.94-12.14,8.36-13.23,15.43-16.75c1.13,0.04,2.26,0.14,3.39,0.28c1.09,2.33,2.18,4.66,3.27,7c1.26,1.43,2.53,2.87,3.79,4.3
			c3.1,13.01,10.42,23.61,17.9,34.34c7.99-6.26-0.62-13.07,3.25-20.09c9.02,15.19,16.19,4.9,21.27-1.94
			c2.9-3.91,2.77-11.49-2.2-16.44c-2.54-42-5.07-84-7.61-125.99c-0.32-5.16-2.2-9.65-7.85-10.12c-19-1.59-37.97-9.4-57.08-0.58
			c-2.36-0.02-4.72-0.03-7.08-0.05c-2.38-3.46-5.64-4.13-9.19-2.36c-11.41,5.71-17.59,45.97-8.73,56.3
			c-0.05,2.39-0.09,4.78-0.14,7.17c-5.85,7.27,0.75,12.22,3.36,17.91c-3.39,10.07,8.64,15.73,7.22,25.23
			c-2.46,0.69-6.39,0.64-4.97,4.51C2240.57,2136.64,2244.77,2135.31,2247.85,2135.74z"/>
		<path class="st5" d="M2179.77,3882.89c-57.2,1.45-113.59-5.38-169.87-15.03c-39.61-6.79-79.89-9.77-119.36-17.18
			c-35.5-6.66-70.72-15.67-105.33-26.07c-57.11-17.14-114.75-33.11-168.72-59.24c-44.37-21.49-87.1-45.57-123.9-78.97
			c-18.64-16.92-31.8-36.91-36.79-61.83c-0.53-2.59-1.06-5.19-1.59-7.78c-0.32-4.43-0.64-8.87-0.96-13.3
			c4.31-11.78,2.7-24,2.64-36.1c4.67-42.07,8.43-84.32,19.42-125.36c2.93-10.96,0.58-22.35,5.33-33.24
			c3.57-8.17,5.78-8.67,12.31-3.28c64.42,53.14,138.83,87.42,217.74,112.23c65.94,20.73,133.77,33.79,201.82,45.74
			c60.72,10.67,121.61,18.72,183.21,22.32c17.06,1,34.16-1.69,51.05,1.6c3.77,1.76,7.62,1.77,11.54,0.55
			c43.1,0.14,86.25,1.61,129.29,0.01c38.41-1.43,76.69-6.24,115.03-9.56c-8.57,11.73-12.64,23.78-4.44,37.73
			c2.51,4.26-0.1,8.88-1.87,13.55c-6.22,16.39-5.92,35.01-17.84,49.59c-2.49,3.04-0.22,8.03,2.68,11.53
			c11.85,14.32,9.82,29.65,2.61,44.97c-2.48,5.26-3.63,10.7-1.46,15.57c6.7,15.05,0.42,33.69-5.06,41.53
			c-14.3,20.47-1.64,42.22-10.12,61.64c-4.74,10.86,12.52,14.06,10.28,24.75c-53.83,6.44-107.85,4.77-161.85,3.93
			C2203.68,3877.99,2191.74,3878.42,2179.77,3882.89z M2125.01,3793.62c7.49-12.68,18.92-11.82,30.15-10.43
			c4.98,0.62,8.79,0.43,8.8-5.28c0.02-6.14-5.31-5.79-9.27-5.44c-5.86,0.51-11.62,2.11-17.46,2.91c-5.19,0.71-9.43-10.22-15.24-1.64
			C2117.56,3780.26,2121.67,3786.1,2125.01,3793.62z M2090.59,3779.64c-5.32,3.24-4.09,10.46-9.65,12.66
			c-3.74,1.48-5.84,5.69-1.31,7.93c4.38,2.17,11.25,7.05,14.53,2.32C2099.01,3795.57,2097.56,3787.09,2090.59,3779.64z
			 M2175.09,3735.56c-6.56,2.02-10.22,7.32-12.74,13.3c-1.61,3.82,1.53,5.56,4.69,5.15c7.61-0.99,13.43-4.65,13.86-13.11
			C2181.05,3737.96,2179.14,3735.32,2175.09,3735.56z"/>
		<path class="st6" d="M2442.68,3118c-0.04-1.2,0.15-2.46-0.17-3.58c-5.88-20.5,3.67-29.35,23.05-32.91
			c11.15-2.05,26.53-37.2,20.78-47.05c-4-6.85-4.25-13.48-4.21-20.6c0.17-31.32-0.07-62.68,0.78-93.96
			c0.45-16.75,2.48-31.71,5.34-47.96c3.62-20.55-8.72-41.11-7.91-62.7c0.19-5.08-3.38-10.73,0.67-15.29
			c6.5-7.32,10.93-11.92-3.1-16.86c-6.02-2.12-4.06-12.9-0.37-19.47c7.67-13.61,12.9-27.09,2.23-41.71c-1.24-1.7-2.03-5.64-1.02-6.8
			c12.18-13.97-0.03-31.81,7.68-46.35c2.34-4.41,4.8-10.92-0.23-12.82c-15.91-6.01-9.72-14.01-3.61-22.79
			c3.39-4.87,1.81-9.66,0.59-15.22c-3.4-15.47-8-30.63-11.47-46.01c-4.66-20.7,2.75-39.87,13.08-57.79
			c3.81-6.6,5.64-13.05,0.99-20.15c-1.91-2.91-4.1-6.55-1.86-10.06c10.6-16.55,2.36-30.59-5.09-45.17
			c-3.68-7.2-9.06-13.97-7.67-23.29c1.4-9.4-2.77-11.91-11.42-7.41c-11.87,6.19-13.07-2.09-13.83-10.65
			c27.02-7,53.72-15.88,81.14-20.5c29.58-4.98,56.16-17.32,83.57-27.83c13.4-5.14,27.78-7.98,36.69-22.16
			c6.3-10.02,11.05-4.51,12.93,4.82c6.37,31.57,12.4,63.23,19.7,94.59c10.84,46.57,23.98,92.64,33.68,139.44
			c9.09,43.85,22.3,86.76,28.25,131.36c3.1,23.24,9.55,46.12,15.61,68.87c19.75,74.13,34.39,149.43,51.88,224.08
			c2.13,9.1-0.79,14.67-8.99,18.88c-35.7,18.34-70.16,39.24-107.64,53.89c-44.26,17.29-89.66,30.56-136.42,40.01
			c-30.22,6.11-60.48,12.23-90.58,18.95C2457.88,3117.53,2450.29,3116.8,2442.68,3118z M2542.29,2419.31
			c-2.57-11.31-3.45-24.33-20.89-20.62c-15.56,4.48-24.67,15.32-28.14,30.51c-1.27,5.56,0.59,13,7.47,13.82
			c5.91,0.7,6.61-5.77,6.46-10.5c-0.29-8.88,1.68-13.84,12.03-9.64c3.22,1.31,7.08,0.58,9.23-3.17c3.99,0.33,7.98,0.66,11.97,0.99
			C2542.64,2422.38,2542.4,2420.75,2542.29,2419.31z"/>
		<path class="st7" d="M3252.72,3772.36c-8.46,18.77-24.1,32.28-35.88,48.62c-23.26,32.26-44.92,66.16-71.82,95.15
			c-21.23,22.88-36.64,49.15-55.3,73.4c-3.24,4.2-6.84,8.43-12.39,10.01c0,0-1.15-0.85-1.15-0.85c-1.31-3.33-2.49-2.23-3.64,0.1
			l0.17-0.15c-4.53,0.32-7.52,3.26-10.62,6.12c-52.13,48.1-110.92,85.85-176.43,113.12c-27.32,1.98-53.24,10.24-79.36,17.59
			c-4.95,0.5-9.9,1.01-14.84,1.51c-5.78-9.44-7.41-0.86-10.27,2.36c-40.16,4.58-80.41,4.6-120.79,4.15
			c-33.43-0.37-66.09-7.72-99.38-8.46c-3.07-0.05-6.13-0.09-9.2-0.14c-1.69-0.86-3.37-1.72-5.06-2.58
			c-37.17-6.58-74.84-10.62-110.96-22.38c-0.59-2.91-0.17-7.29-1.93-8.5c-11.55-7.96-8-15.58-1.7-25.13
			c11.37-17.24,28.1-22.67,47.07-23.46c16.17-0.67,31.5-2.28,38.8-19.6c2.7-6.39,6.65-5.75,11.51-3.65
			c16.74,7.22,33.47,15.32,48.04-4.17c1.05-1.4,4.61-1.69,6.82-1.35c29.7,4.65,52.89-15.29,79.38-22.42
			c28.19-7.59,54.92-21.17,84.57-25.27c5.53-0.77,13.71-1.33,15.87-7.05c6.81-18.04,23.37-22.11,38.1-29.4
			c37.72-18.66,73-42.12,113.38-55.64c15.18-5.08,28.43-14.38,39.01-27.31c11.07-13.52,20.99-29.64,42.56-27.56
			c4.29,0.41,6.38-2.58,6.38-6.86c15.62,1.13,31.03,2.03,46.66,5.3c16.68,3.49,33.35,11.31,51.28,7.39
			c10.86,8.05,21.43,8.86,32.59-2.24c-16.39-2.01-31.05-9.95-47.46-5.7c-2.97-0.4-5.95-0.81-8.92-1.21
			c-0.47-1.66-0.94-3.32-1.42-4.98c9.78-6.31,7.54-15.26,4.99-24.01c-4.09-14.06-2.23-28.47,5.28-39.59
			c10.12-14.97,15.89-31.58,23.61-47.43c3.51-7.21,0.98-16.32,9.1-22.44c14.34-10.8,25.5-22.21,33.47-41
			c7.53-17.76,13.53-33.76,13.87-52.72c0.12-6.84,4.11-11.74,12.29-13.01c6.7-1.04,10.82-1.92,16.91,4.2
			c10.23,10.29,20.68,20.61,32.07,30.05c23.96,19.83,56.85,33.51,60.87,70.85c-0.15,2.16-0.3,4.31-0.45,6.47
			c-1,1.47-2,2.95-3.01,4.42c-3.98,25.94-23.15,44.43-33.1,67.44c-2.82,0.79-6.59,1.33-5.3,5.33c0.86,2.64,3.86,1.8,6.1,0.8
			C3253.5,3771.22,3253.37,3771.84,3252.72,3772.36z"/>
		<path class="st6" d="M2377.42,3879.28c2.23-10.68-15.03-13.88-10.28-24.75c8.48-19.42-4.18-41.17,10.12-61.64
			c5.48-7.84,11.76-26.49,5.06-41.53c-2.17-4.87-1.02-10.31,1.46-15.57c7.21-15.32,9.24-30.65-2.61-44.97
			c-2.9-3.51-5.17-8.49-2.68-11.53c11.93-14.58,11.63-33.2,17.84-49.59c1.77-4.67,4.38-9.29,1.87-13.55
			c-8.2-13.94-4.13-25.99,4.44-37.73c45.09-6.27,90.56-10.6,135.15-19.36c43.66-8.58,86.41-21.76,129.6-32.75
			c68.6-17.45,131.25-47.8,189.91-86.91c2.86-1.9,6.7-2.32,10.09-3.42c0.2,10.76-7.72,15.49-15.33,20.3
			c-15.42,9.75-23.83,22.08-25.01,41.81c-1.43,23.87-7.22,47.18-8.14,71.67c-1.12,29.93-14.47,59.17-9.16,90.29
			c1.08,6.34-2.09,11.24-6.08,16.16c-4.78,5.89-3.73,44.81,0.75,49.83c1.09,1.23,3.13,2.66,4.5,2.45
			c16.15-2.51,30.93-0.31,43.5,11.17c1.01,0.92,3.49,0.25,5.28,0.32c-41.08,33.62-89.51,53.11-138.47,71.41
			c-78.45,29.34-159.6,49.3-242.32,60.36C2444.31,3876.09,2411.07,3883.86,2377.42,3879.28z"/>
		<path class="st6" d="M1362.16,3437.85c15.54-9.28,31.08-18.55,46.62-27.82c-1.02,12.93-2.05,25.86-3.07,38.78
			c-6.02,10.65-15.17,19.53-18.09,31.94c-2.76,2.22-6.79,3.87-8.1,6.75c-15.07,33.05-30.75,65.92-21.64,104.21
			c9.01,37.87,19.45,74.94,45.87,105.16c1.91,5.57,4.28,10.63,8.53,15.15c24.36,25.9,48.33,52.16,75.95,74.75
			c15.43,15.04,32.35,28.64,50.95,39.04c58.5,32.71,119.38,59.69,184.79,76.47c79.7,20.44,158.78,43.03,241.74,46.99
			c13.13,0.63,27.58-3.42,39.64,4.35c10.26,6.6,19.86,5.67,30.7,2.43c21.28-6.37,40.92,3.36,61.12,7.44
			c-15.31,7.65-16.78,16.89-3.21,27.85c-0.11,1.58-0.22,3.16-0.32,4.73c-9.8,1.99-7.92,14.61-16.31,17.88
			c1.81,1.31,3.63,2.62,5.44,3.93c-6.03,7.29-12.08,5.72-20.52,2.84c-15.53-5.29-30.26-12.36-46.75-16.04
			c-23.29-5.2-47.73-4.65-70.06-13.31c-16.96-6.58-32.92-15.59-51.71-16.57c-12.88-0.67-26.76,0.6-38.31-3.86
			c-16.2-6.26-22.53-1.42-25.28,13.65c-24.91-6.01-49.49-13.34-74.23-19.96c-45.93-12.3-92.72-20.25-138.99-30.68
			c-69.17-18.15-138.51-35.74-207.48-54.63c-61.73-16.91-123.06-35.28-184.58-52.98c-28.14-8.09-56.44-15.66-83.51-27.04
			c1.2-3.66,1.13-7.56-1.85-9.95c-19.55-15.68-15.74-37.44-14.28-57.89c0.69-9.61,11.46-23.04,8.07-27.58
			c-11.22-15.01-7.18-32.7-13.4-47.98c-2.84-6.96-13.94-7.81-13.83-17.42c5.73-6.91,12.32-12.75,19.6-18.12
			c28.61-21.1,56.86-42.71,85.24-64.13c11.69-2.71,18.78-10.09,21.87-21.52c1.72-3.38,4.59-6.38,3.61-10.68c0,0-0.04,0.02-0.04,0.02
			c31.65-10.23,55.83-31.5,79.41-53.65c0,0,0.15-0.11,0.15-0.11c4.69-0.62,9.68-0.79,10.69-7.01c0,0,0.14-0.13,0.15-0.13
			c14.14-2.38,24.47-10.24,31.95-22.19c0,0-0.23,0.29-0.23,0.29C1359.68,3440.11,1360.92,3438.98,1362.16,3437.85z"/>
		<path class="st6" d="M3003.66,3822.55c0.01,4.28-2.08,7.28-6.37,6.86c-21.58-2.08-31.5,14.03-42.56,27.56
			c-10.58,12.93-23.84,22.23-39.01,27.31c-40.38,13.52-75.65,36.98-113.38,55.64c-14.73,7.29-31.29,11.35-38.1,29.4
			c-2.16,5.72-10.35,6.29-15.87,7.05c-29.65,4.11-56.39,17.68-84.57,25.27c-26.49,7.14-49.68,27.07-79.38,22.42
			c-2.21-0.35-5.77-0.06-6.82,1.35c-14.57,19.49-31.3,11.39-48.04,4.17c-4.86-2.1-8.81-2.74-11.51,3.65
			c-7.3,17.31-22.63,18.93-38.8,19.6c-18.96,0.78-35.69,6.22-47.07,23.46c-6.3,9.55-9.85,17.17,1.7,25.13
			c1.76,1.21,1.34,5.59,1.93,8.5c-48.82-12.58-98.02-23.42-147.59-32.57c-1.34-4.26-2.65-8.6-7.82-3.05
			c-4.92-0.64-10.33,0.77-14.39-3.44c-1.31-1.04-2.61-2.07-3.92-3.11c-22.52,2.2-42.6-9.23-64.32-11.52
			c-1.07-4.39-1.92-9.32-7.31-2.91c-5.93-1.45-11.85-2.91-17.78-4.36c-14.43-16.78-21.6-18.35-32.76-7.14
			c-2.22-0.09-4.45-0.17-6.67-0.26c-1.02-4.89-2.84-9.29-8.62-9.78c-4.77-0.41-5.67,3.22-6.19,6.91
			c-6.26-0.92-13.05,1.02-18.66-3.42c1.44-4.75-1.3-11.23,4.48-14.12c11.23-5.61,6.81-14.14,4.89-22.34
			c-1.38-4.09-3.78-6.79-8.55-6.25c-0.93-2.36-1.86-4.72-2.79-7.07c-5.68-7.6,0.07-14.68,0.99-21.99
			c31.21-3.01,61.38,9.19,92.3,6.75c12.21-0.96,23.15,12.93,35.38,1.9c13.27,0.32,26.54,0.63,39.82,0.95
			c3.4,5.35,6.91,5.12,10.49,0.19c32.44,0.14,64.88,0.28,97.31,0.42c1.23,2.68,2.46,2.61,3.68-0.01
			c48.28,3.01,95.99-5.19,144.01-7.39c5.55-0.02,11.66,1.74,15.15-4.78c4.58-0.53,9.17-1.06,13.75-1.59
			c2.77,3.33,5.08,2.76,7.04-0.83c4.89-0.79,9.78-1.57,14.68-2.36c4.75,4.08,8.42,2.76,11.33-2.28
			c24.75-5.59,50.05-9.43,74.13-17.12c54.65-17.45,107.87-38.54,159.76-63.44c54.04-25.93,100.74-60.41,140.12-105.23
			c13.96-10.65,24.45-24.27,31.98-39.88c19.56-40.56,27.72-84.78,40.5-127.54c6.5-21.74-2.56-40.96-4.9-61.37
			c-1.85-16.11-14.97-29.67-9.77-47c43.17,9.32,86.35,18.64,129.52,27.96c5.28,5.39,11.94,2.25,17.99,2.91
			c1.17,0.21,2.35,0.43,3.52,0.64c5.19,4.43,12.36,4.07,17.89,6.97c15.66,8.19,34.64,3.26,49.76,14.76
			c20.29,15.43,38.53,32.97,56.66,50.65c7.55,7.36,14.31,16.48,12.04,28.42c-3.88,20.45-2.56,42.12-14.05,60.82
			c-4.03-37.34-36.92-51.01-60.87-70.85c-11.39-9.43-21.84-19.76-32.07-30.05c-6.08-6.12-10.21-5.24-16.91-4.2
			c-8.18,1.27-12.17,6.17-12.29,13.01c-0.34,18.95-6.33,34.96-13.87,52.72c-7.97,18.79-19.13,30.2-33.47,41
			c-8.12,6.11-5.59,15.23-9.1,22.44c-7.72,15.85-13.49,32.46-23.61,47.43c-7.51,11.11-9.37,25.53-5.28,39.59
			c2.54,8.74,4.79,17.7-4.97,23.99c-8.64-0.31-17.31-0.6-25.98-0.9c-15.59-6.46-32.5-5.75-48.7-8.89c-2.08-3.49-4.26-2.51-6.47-0.14
			c-3.36-0.37-6.73-0.73-10.09-1.1c-15.47-7.88-32.75-8.14-41.45,1.88c15.02-4.01,25.25,6.26,37.95,5.55
			C2988.83,3819.98,2997.58,3815.49,3003.66,3822.55z M2393.58,3991.06c-12.36-3.01-21.69-6.27-29.17,0.2
			c-3.97,3.43,1.09,9.21,5.2,11.15C2380.68,4007.67,2383.5,3996.23,2393.58,3991.06z"/>
		<path class="st5" d="M2108.43,883.15c0.22,14.8,3.31,26.11,18.63,34.91c14.76,8.48,18.19,26.92,16.2,43.55
			c-1.85,15.48-2.97,30.42,0.18,45.88c3.11,15.27-9.31,29.99-4.62,44.92c8.64,27.49-8.59,51.69-8.23,76.81
			c0.51,35.55-2.64,71.04-1.22,106.71c0.92,23.22,4.36,46.69,1.7,71.01c-3.86,35.21-11.01,69.97-13.87,104.88
			c-2.15,26.19-3.03,54.01,3.48,81.24c3.2,13.39-0.91,28.96-0.39,43.82c0.44,12.51,1.25,24.41,4.4,36.37
			c0.6,2.28,1.71,5.38,0.73,6.99c-12.33,20.36,2.8,40.47,0.3,60.67c-0.29,2.35-0.86,5.59,0.35,7.05
			c18.86,22.65,9.62,54.7,26.26,78.05c1.28,1.8,2.6,5.42,1.73,6.63c-12.28,17.04-4.96,39.14-17.19,57.59
			c-9.88,14.9-19.49,32.54-16.48,54.52c1.95,14.2-11.53,27.63-15.14,42.93c-4.96,21.01-7.34,41.74-5.03,63.13
			c1.55,14.43-13.37,25.91-30.12,24.33c-10.73-1.02-22.73-6.39-31.04,5.98c-23.65,1.37-45.12-9.75-68.16-11.89
			c0.09-5.96-0.86-12.16,0.42-17.85c10.77-47.85,12.24-96.87,16.89-145.34c5.35-55.7,10.41-111.38,18.43-166.77
			c3.17-3.49,3.5-7.35,1.48-11.51c0.57-4.51,1.13-9.02,1.7-13.53c0.05-3.68,0.09-7.37,0.14-11.05c0.14-12.45,2.84-24.7,3.67-36.99
			c3.51-52.4,13.91-103.91,19.24-156.08c6.26-61.31,18.52-121.99,20.67-183.74c0.35-9.98,11.74-18.68,3.07-29.36
			c2.76-3.97,3.68-8.15,4.04-13.17c2.12-29.6,4.45-59.2,7.67-88.69c5.71-52.42,12.11-104.77,18.22-157.15
			c8.55-1.91,6.53-8.85,6.6-14.47c0.18-14.34,0.01-28.68-0.02-43.02C2098.77,878.15,2103.58,880.78,2108.43,883.15z"/>
		<path class="st5" d="M1985.19,2391.27c-2.02,6.13-14.84-0.04-12.25,8.96c2.44,8.48,9.18,16.06,19.6,15.71
			c11.68-0.4,22.33,1.93,32.79,7.03c9.34,4.56,12.22,10.93,7.47,20.15c-8.65,16.79-12.15,33.23-5.07,52.27
			c4.03,10.84,1.04,23.82-4.45,34.78c-5.93,11.84-12.18,23.2-6.03,37.09c1.19,2.69,1.44,7.64-3.23,8.91
			c-3.47,0.94-5.05-2.14-6.53-4.78c-6.42-11.41-17.08-7.07-25.49-5.1c-5.99,1.41-10.13,8.86-9.75,15.76
			c0.38,6.92,7.74,6.2,12.38,8.29c6.35,2.86,12.71,2.58,19.17,0.21c4.01-1.47,7.1,0.23,8.8,3.86c1.87,4.01,2.59,9.17-1.85,11.13
			c-17.82,7.9-12.67,13.92-0.14,22.76c8.22,5.81,3.47,17.75-7.41,21.69c-0.42-2.62-0.31-5.69-4.29-5.46
			c-0.41,0.02-1.1,0.71-1.12,1.12c-0.22,3.97,2.85,3.86,5.47,4.28c3.32,9.97,3.37,20.71,9.6,30.19c2.83,4.3,4.34,13.68-5.08,16.09
			c-6.79,1.74-11.91-0.68-11.77-8.99c0.16-9.46-9.35-9.84-14.26-14.32c-3.1-2.83-9.93-3.15-12.88,1.57
			c-3.28,5.26,0.67,9.63,5.45,11.16c12.86,4.1,10.91,25.38,29.47,24.01c4.63-0.34,2.14,8.32-2.25,10.86
			c-9.44,5.47-12.81,13.63-12.84,23.95c-0.01,2.3-0.27,6.24-1.43,6.66c-20.63,7.57-6.91,18.55,0.42,32.62
			c-13.11-7.79-22.07-9.45-27.74,2.35c-1.81,3.76-5.84,5.28-8.85,2.06c-18.36-19.66-10.08,2.84-13.2,8
			c-4.67,7.72,1.01,22.39-7.03,23.78c-12.14,2.1-13.17-12.23-17.2-21.12c-3.15-6.95-7.9-12.72-7.92-21.36
			c-0.05-23.02,10.99-34.27,33.85-32.66c-17.62-16.51-22.05-16.22-37.27,4.42c-4.37,5.94-8.41,6.26-13.22,2.17
			c-8.16-6.94-18.56-12.98-23.21-21.9c-8.23-15.79-26.73-14.56-36.85-26.2c-2.83-3.25-5.16,0.15-6.71,2.74
			c-2.96,4.94-4.29,10.42-0.55,15.13c1.99,2.51,6.05,3.37,9.15,5.01c21.3,11.22,23.21,21.12,6.6,41.99
			c-3.3-12.51-10.55-12.74-21.76-10.92c-27.48,4.46-42.93-16.07-30.5-40.37c4.65-9.09,4.17-16.1-0.54-22.94
			c-4.91-7.12-12.74-4.57-19.75-2.38c-10.14,3.17-15.4,0.69-12.72-11.02c0.65-2.83,2.25-7.55,1.17-8.34
			c-12.57-9.2-26.7,1.47-40.65-2.63c-6.47-1.91-3.95,8.68-2.51,14.29c0.54,2.11,0.09,4.48,0.09,8.33c-9.54-3-20.89-12.47-21.88,7.69
			c-0.36,7.35-10.78,8.3-18.19,7.26c-8.76-1.23-10.83-8.37-8.68-14.85c7.48-22.52,4.13-46.41,11.19-69.58
			c4.61-15.12,3.74-33.42,9.79-49.2c7.13-18.6,7.73-38.23,11.72-57.29c3.45-16.47,1.55-18.28-16.06-14.03
			c9.98-45.46,19.94-90.92,29.93-136.38c0.9-4.07,2.21-8.08,2.83-12.19c4.61-30.89,6.35-32.89,35.81-20.96
			c43.02,17.43,88.45,25.99,132.63,39.03c-3.58,4.87-2.41,10.36-2.06,15.74c-4.76,3.73-4.86,7.35,0.27,10.83
			c-0.37,2.2-0.75,4.39-1.12,6.59c-2.64,1.53-2.62,3.19-0.26,4.98c-0.1,1.98-0.19,3.97-0.29,5.95c-10.96,0.29-17.55,2.3-18.59,16.76
			c-1.05,14.55,4.29,27.91,3.08,41.98c0.01,1.88,0.03,3.76,0.06,5.64c-7.53,21.8,3.41,42.8,2.95,64.31
			c-0.07,3.23,3.46,4.39,6.53,4.84c3.42,1.34,6.83,2.68,10.25,4.03c13.24,13.32,31.56,9.87,47.5,14.19
			c15.68,4.26,16.57-3.19,10.88-14.95c-0.43-2.54-0.86-5.08-1.3-7.62c-1.07-9.3,3.03-19.04-2.36-27.98
			c8.45-9.53,10.37-20.24,5.85-32.12c-1.97-33.61,0.6-67.15,1.54-100.71C1956.67,2386.52,1970.53,2391.31,1985.19,2391.27z
			 M1763.67,2606.93c-2.47-4.38-5.87-8.05-10.73-4.03c-3.53,2.92-8.81,7.1-1.67,12.15c5.74,3.9,12.68,9.68,18.5,4.13
			C1774.16,2615,1765.26,2611.46,1763.67,2606.93z M1909.61,2717.58c-5.5-5.97-9.22-13.93-19.23-13.54
			c-7.14,0.28-16.6,0.79-15.64,10.1c1.25,12.14,14.67,12.83,23.21,16.48C1902.99,2732.77,1905.69,2723.46,1909.61,2717.58z
			 M1850.74,2646.48c-13.06-11.68-26.15-22.98-45.02-26.73c0.02,5.86-2.48,14.37,3.23,14.52
			C1824.39,2634.69,1834.48,2649.36,1850.74,2646.48z M1973.1,2747.42c-1.43-4.78-5.41-4.21-8.61-3.43
			c-4.36,1.06-10.35,1.94-9.98,7.83c0.29,4.61,4.89,6.6,9.4,5.23C1968.52,2755.66,1972.03,2752.58,1973.1,2747.42z M1804.61,2714.29
			c0.07-2.45,0.01-5.3-3.25-5.06c-3.49,0.25-4.32,3.73-5.3,6.41c-0.89,2.44-0.57,5.11,2.92,4.72
			C1802.27,2720,1803.97,2717.48,1804.61,2714.29z M1958.5,2629.7c-3.75,0.13-5.18,1.82-5.08,4.41c0.1,2.58,1.86,4.32,4.43,4.45
			c2.59,0.13,4.84-1.42,4.24-4.06C1961.65,2632.56,1959.53,2631,1958.5,2629.7z M1964.27,2596.05c-0.98,1.53-2.63,3.02-2.34,3.91
			c0.37,1.17,2.21,2.53,3.49,2.6c2.45,0.13,4.41-1.44,3.41-4.09C1968.42,2597.39,1966.19,2597.01,1964.27,2596.05z"/>
		<path class="st7" d="M2226.45,3972.17c-12.23,11.03-23.17-2.86-35.38-1.9c-30.92,2.44-61.09-9.76-92.29-6.75
			c0.01,0-1.63-0.05-1.63-0.05c-20.19-4.08-39.84-13.81-61.12-7.44c-10.83,3.24-20.43,4.18-30.7-2.43
			c-12.06-7.76-26.51-3.72-39.64-4.35c-82.96-3.96-162.03-26.55-241.74-46.99c-65.41-16.77-126.29-43.75-184.79-76.47
			c-18.6-10.4-35.52-24-50.95-39.04c7.89-7.67-1.8-9.98-4.65-13.7c-20.66-26.92-50.33-45.28-69.98-73.26
			c-2.16-3.07-4.88-7.7-9.85-2.94c-26.42-30.21-36.86-67.29-45.87-105.16c-9.11-38.28,6.57-71.15,21.64-104.21
			c1.31-2.88,5.33-4.53,8.1-6.75c2.32,0.04,4.64,0.07,6.96,0.11c1.37,1.69,2.63,1.71,3.76-0.25l-0.23,0.23
			c2.93-1.63,4.39-3.99,3.65-7.42l-0.31,0.12c9.58,2.03,9.29-11.96,18.13-11.14c1.5,23.01-12.77,40.47-21.15,60
			c-4.16,9.69-10.3,18.72-10.51,31.29c7.13-2.02,10.42-6.74,12.77-11.8c1.96-4.22,2-10.59,8.34-9.62c5.62,0.86,4.59,7.66,6.52,11.68
			c7.9,16.45,8.82,34.64,10.71,52.31c5.96,55.69,35.17,96.53,79.39,128.5c19.43,14.04,39.04,27.7,59.95,39.53
			c6.34,3.59,14.75,5.8,16.51,14.84c-0.17,7.76,5.19,13.26,10.77,15.4c31.57,12.07,60.27,30.19,91.1,43.23
			c27.4,11.59,56.32,20.36,85.84,27.25c34.28,8,69.22,12.63,103.26,21.67c10.26,2.73,21.29,4.08,31.85,3.58
			c6.94-0.33,18.05,1.54,18.14-11.46c30.39,3.81,60.35,10.27,91.04,12.44c31.37,2.22,62.52,8.96,93.87,9.79
			c80.22,2.11,160.43,6.96,240.74,3.96c83.1-3.1,165.6-10.5,246.38-31.86c91.03-24.07,179.12-54.41,260.88-102.85
			c52.92-31.36,89.73-74.94,114.14-129.26c20.11-44.76,22.39-91.78,3.63-138.48c-1.78-4.43-3.25-9.04-4.33-13.68
			c-1.06-4.54-3.46-10.04,0.81-13.53c4.46-3.65,9.48,0.08,13.14,2.6c9.95,6.85,20.24,12.63,32.19,15.02
			c-5.2,17.32,7.92,30.88,9.77,46.99c2.34,20.41,11.4,39.63,4.9,61.37c-12.78,42.76-20.94,86.98-40.5,127.54
			c-7.53,15.61-18.02,29.23-31.98,39.88c-5.81-6.7-11.4-4.01-17.33,0.08c-21.63,14.92-43.21,29.92-65.1,44.45
			c-32.71,21.72-63.96,46.52-98.91,63.8c-60.63,29.97-126.95,45.58-192.1,62.36c-38.27,9.86-79.2,9.95-119.05,12.74
			c-11.6,0.81-23.74,9.12-39.27-1.36c37.58-16.08,78.68-9.96,111.81-31.07c-3.68-5.06-7.71-2.67-11.55-1.79
			c-58.98,13.44-119.07,18.17-179.23,19.57c-87.9,2.06-175.54-3.81-262.9-13.92c-37.9-4.39-75.79-8.91-113.8-12.52
			c-15.4-1.46-26.14-1.78-32.9,13.18c44.07,13.29,90.2,13.08,134.7,23.3c28.3,6.51,58.04,6.54,86.85,11.18
			C2181.56,3962.36,2205.46,3960.26,2226.45,3972.17z M1370.93,3566.84c4.66-0.51,6.08-3.42,5.79-7.45c-0.3-4.18-2.8-6.4-6.88-6.61
			c-4.15-0.22-7.03,1.57-6.8,6.07C1363.3,3563.71,1366.48,3566.09,1370.93,3566.84z"/>
		<path class="st6" d="M2485.89,1952.89c-2.95-12.96-13.45-7.44-20.67-7.61c-28.86-0.69-31.13-3.75-25.29-31.26
			c4.24-19.98-3.33-39.81-8.38-58.14c-3.02-10.93-4.85-19.92-1.32-29.51c3.99-10.83,1.41-29.18,7.29-31.66
			c13.83-5.83,5.36-14.95,7.88-21.87c2.02-5.54-0.97-9.96-4.28-14.68c-18.71-26.69-27.89-55.16-14.65-87.35
			c1.08-2.64,1.53-5.89,1.15-8.71c-4.57-34.28-6.71-69.17-14.83-102.6c-7.83-32.22-10.55-65.53-14.18-97.55
			c-3.66-32.3-9.75-64.99-10.92-98.03c-0.99-28.12-9.74-55.9-13.98-83.99c-4.16-27.58-6.72-55.4-10.43-83.05
			c-4.9-36.49-10.49-72.88-15.29-109.39c-3.4-25.85-4.46-51.9-5.96-77.87c-1.38-23.91-1.66-48.52-5.93-72.49
			c-3.17-17.78-3.32-35.99-0.44-53.58c5.02-30.64,4.42-32.37-25.5-31.91c-3.6,0.06-7.19,0.05-10.79,0.08
			c-18.72-12.43-40.01-14.71-61.65-15.62c-1.39-0.81-2.78-1.61-4.16-2.42c-5.87-0.29-11.74-0.58-17.62-0.87
			c-27.79-4.49-55.57-4.87-83.36,0.02c-18.9-2.47-31.97,9.57-46.28,18.53c-4.14-4.81-8.01-2.98-12.54-0.13
			c-17.08,10.76-21.86,8.32-23.78-11.61c12.4-11.42,32.2-5.93,43.84-19.1c2.23-0.26,4.45-0.52,6.68-0.78
			c22.49,5.12,44.15,1.67,65.38-6.3c53.82-2.01,106.63,6.44,158.89,17.46c22.66,4.78,24.09,27.51,27.73,45.72
			c9.94,49.79,17.95,99.93,26.22,150.03c8.57,51.9,22.24,102.95,32.75,154.56c9.87,48.43,16.87,97.49,28.18,145.56
			c10.85,46.09,19.75,92.53,29.29,138.85c8.56,41.54,14.14,83.82,24.95,124.75c11.24,42.57,17.81,86.01,28.52,128.63
			c11.8,46.98,21.59,94.46,32.26,141.72c2.85,12.63,3.87,26.06,8.99,37.68c7.74,17.56,1.69,26.56-14.46,32.24
			C2528.1,1938.05,2508.67,1950.21,2485.89,1952.89z"/>
		<path class="st7" d="M2633.98,4211.25c-44.7,12.05-86.26,4-127.63,0.76c-55.52-4.35-107.93-27.17-163.14-31.34
			c-53.72-4.06-101.4-29.77-154.29-35.81c-59.46-6.8-117.2-23.27-175.2-37.33c-134.04-32.5-268.52-63.26-401.61-99.6
			c-98.34-26.85-197.37-51.27-295.33-79.4c-66.93-19.23-136.05-30.5-201.7-53.32c-50.17-17.44-99.44-39.77-125.66-91.77
			c-5.61-11.12-8.31-22.04-1.79-35.85c18.2,20.79,34.55,41.3,57.69,55.34c26.31,15.96,55,26.02,83.55,35.72
			c48.93,16.63,98.13,33.91,148.59,44.25c93,19.05,184.11,44.98,275.81,68.77c121.94,31.63,243.6,64.34,365.5,96.12
			c34.61,9.02,69.77,15.88,104.41,24.79c16.49,4.24,32.61,15.06,48.02,16.59c22.26,2.22,42.43,9.94,63.52,14.67
			c89.06,19.95,178.42,38.55,266.87,61.31c73.96,19.03,148.62,35.46,224.91,42.8C2628.02,4208.09,2629.44,4209.2,2633.98,4211.25z"
			/>
		<path class="st5" d="M1931.18,1959.03c-18.23,4.39-33.74-6.64-49.21-11.76c-22.37-7.4-45.41-14.08-67.04-24.01
			c-5.53-2.54-11.32-4.5-8.65-12.78c8.24-25.62,8.18-53.04,17.92-78.56c4.93-12.9,4.81-27.72,6.97-41.67
			c6.59,0.43,9.12-2.36,10.19-9.21c1.9-12.22,4.01-25.67,9.16-35.87c22.09-43.73,26.77-92.39,41.61-138.11
			c8.61-26.53,14.46-54.77,18.19-83.09c2.71-20.58,5.74-42.48,18.32-59.5c5.99-8.1,14.56-13.34,10.64-25.76
			c12.52,2.79,15.48,10.71,12.92,19.32c-3.52,11.86-2.94,23.67-2.75,35.55c0.08,5.35-3.35,14.03,4.97,14.99
			c8.35,0.96,12.06-6.16,12.72-14.2c1.2-14.67,1.49-29.5,3.88-43.97c3.91-23.64,10.07-46.73,24.74-66.51
			c-0.03,8.34,1.1,16.88-0.3,24.98c-5.94,34.24-10.31,68.66-14.03,103.2c-2.97,27.57-6.81,55.04-10.02,82.58
			c-3.9,33.4-8.36,66.76-11.06,100.26c-2.42,30.07-5.3,60.24-8.76,90.05C1944.83,1842.96,1937.75,1900.97,1931.18,1959.03z"/>
		<path class="st5" d="M1995.74,1383.87c-14.67,19.78-20.83,42.87-24.74,66.51c-2.39,14.48-2.68,29.3-3.88,43.97
			c-0.66,8.04-4.37,15.17-12.72,14.2c-8.32-0.96-4.89-9.63-4.97-14.99c-0.18-11.87-0.77-23.69,2.75-35.55
			c2.56-8.61-0.4-16.53-12.92-19.32c3.92,12.42-4.66,17.66-10.64,25.76c-12.58,17.02-15.61,38.92-18.32,59.5
			c-3.73,28.32-9.58,56.57-18.19,83.09c-14.84,45.71-19.52,94.38-41.61,138.11c-5.15,10.2-7.26,23.64-9.16,35.87
			c-1.06,6.85-3.6,9.64-10.19,9.21c8.18-40.77,15.49-81.74,24.8-122.26c8.16-35.5,12.95-71.86,22.45-106.74
			c9.77-35.85,13.56-72.98,25.73-108.13c3.88-4.68,6.59-9.64,3.95-15.94c0.37-2.17,0.73-4.34,1.1-6.5
			c4.51-2.37,3.38-6.97,4.26-10.77c5.92-5.02,7.07-12.44,8.94-19.2c17.65-63.74,26.28-129.39,40.38-193.9
			c3.34-15.27,10.03-30.81,6.23-47.28c0.21-1.81,0.4-3.64,0.6-5.46c4.65-2.25,5.18-4.85,0.67-7.88c0.2-2.17,0.39-4.34,0.59-6.51
			c1.02-1.57,2.04-3.13,3.06-4.7c0.19-3.24,0.37-6.48,0.56-9.72c10.66-6.54,6.37-16.87,6.62-26.04c1.4-9.3,2.79-18.6,4.19-27.9
			c4.91-1.21,8.93-2.73,2.67-7.77c0.22-2.27,0.44-4.54,0.67-6.8c3.07-0.51,6.09-1.47,6.66-4.92c8.04-48.43,23.24-95.43,29.27-144.23
			c1.99-16.14,12.81-32.5,0.34-48.82c10.81-3.21,13.21-17.38,25.09-19.18c1.92,19.95,6.7,22.38,23.78,11.62
			c4.53-2.85,8.39-4.68,12.53,0.14c-1.3,3.02-2.6,6.04-3.9,9.06c-14.54,7.46-1.19,18.24-3.24,27.19c-4.33,0.53-7.72,2-7.25,7.29
			c-7.56,25.8-12.17,52.24-16.41,78.72c-6.77,42.31-15.13,84.51-19.13,127.09c-4.61,49.11-12.22,97.77-18.14,146.67
			c-7.61,24.91-6.41,51.14-11.54,76.41C2002.63,1343.74,2003.89,1364.66,1995.74,1383.87z"/>
		<path class="st7" d="M2857.71,3739.95c-1.8-0.07-4.27,0.6-5.28-0.32c-12.57-11.49-27.35-13.69-43.5-11.17
			c-1.36,0.21-3.4-1.22-4.5-2.45c-4.48-5.02-5.52-43.94-0.75-49.83c3.99-4.92,7.16-9.82,6.08-16.16
			c-5.31-31.13,8.05-60.36,9.16-90.29c0.91-24.48,6.71-47.79,8.14-71.67c1.18-19.73,9.59-32.06,25.01-41.81
			c7.61-4.81,15.52-9.53,15.33-20.3c7.93-7.24,15.72-14.64,23.85-21.63c4.18-3.6,8.81-6.52,14.12-1.05
			c6.98,7.18,1.22,7.44-4.13,9.57c-1.63,0.65-1.74,6.4-1.68,9.8c0.55,31.48,2.52,62.75,13.83,92.65c0.82,2.17,0.98,4.74,0.86,7.09
			c-0.6,11.78,0.77,21.35,10.68,31c11.44,11.14,11.26,29.24,17.44,44.13c12.45-54.52-20.62-102.37-23.22-154.87
			c10.38,7.83,15.84,18.45,17.42,31.16c3.89,31.25,18.23,60.51,17.16,92.73c-2.01,60.85-26.78,110.35-74.23,148.29
			C2872.7,3730.28,2867.17,3738.11,2857.71,3739.95z"/>
		<path class="st1" d="M1995.74,1383.87c8.15-19.21,6.89-40.13,10.93-60.08c5.13-25.27,3.93-51.51,11.54-76.41
			c5.19,2.47,0.25,11.14,9.09,12.86c9.71-20.94,19.5-42.07,29.3-63.21c8.66,10.68-2.73,19.38-3.07,29.36
			c-2.14,61.75-14.41,122.43-20.67,183.74c-5.33,52.18-15.73,103.68-19.24,156.08c-0.82,12.29-3.53,24.54-3.67,36.99
			c-3.1,3.65-3.82,7.32-0.14,11.05c-0.57,4.51-1.13,9.02-1.7,13.53c-5.04,3.25-5.83,7.05-1.48,11.51
			c-8.02,55.39-13.09,111.06-18.43,166.77c-4.65,48.47-6.12,97.49-16.89,145.34c-1.28,5.69-0.34,11.89-0.42,17.85
			c-13.37-2.88-27.61-2.4-39.71-10.22c6.57-58.06,13.65-116.07,20.39-174.09c3.46-29.81,6.34-59.98,8.76-90.05
			c2.69-33.5,7.16-66.86,11.06-100.26c3.21-27.54,7.06-55.01,10.02-82.58c3.72-34.54,8.09-68.96,14.03-103.2
			C1996.84,1400.75,1995.71,1392.2,1995.74,1383.87z"/>
		<path class="st8" d="M2197.75,4056.24c21.72,2.29,41.8,13.71,64.32,11.51c1.31,1.03,2.61,2.07,3.91,3.11
			c4.06,4.21,9.47,2.8,14.4,3.44c1.77,3.15,4.62,3.54,7.82,3.05c49.57,9.15,98.77,19.99,147.59,32.57
			c36.12,11.76,73.8,15.8,110.97,22.37c1.69,0.86,3.37,1.72,5.06,2.58c3.07,0.05,6.14,0.09,9.21,0.14
			c2.43,4.26,13.15,9.08-1.68,11.71c-7.78,1.38-15.01,5.84-22.5,8.92c-29.01-1.3-56.3-11.5-84.58-16.27
			c-37.05-6.26-73.68-15.09-110.06-23.53c-59.86-13.88-118.81-32.08-178.8-45.99c-18.63-4.32-37.21-8.87-55.81-13.31
			c0.04-7.29-6.19-7.46-10.78-9.17c-6.56-2.44-7.38-6.46-4.19-12.07c2.37-0.01,4.75-0.01,7.12-0.02c5.61,4.44,12.4,2.5,18.66,3.42
			c4.22,4.64,9.68,2.92,14.81,2.87c2.22,0.09,4.45,0.17,6.68,0.26c10.49,4.35,21.63,5.75,32.76,7.14
			c5.93,1.45,11.85,2.91,17.78,4.35C2192.19,4056,2194.87,4056.36,2197.75,4056.24z"/>
		<path class="st9" d="M1876.56,2404.82c0.37-2.2,0.75-4.39,1.12-6.59c4.87-3.73,4.56-7.34-0.27-10.83
			c-0.35-5.38-1.52-10.86,2.06-15.74c20.67,5.78,41.7,9.67,62.94,12.48c-0.93,33.56-3.51,67.1-1.53,100.71
			c-3.36,10.45-7.54,20.75-5.85,32.12c5.39,8.94,1.29,18.68,2.37,27.99c-0.7-0.28-1.43-0.4-2.19-0.38
			c-6.05-10.63-16.68-9.07-26.33-9.61c-11.78-0.66-22.99,5.37-34.95,3.32c1.7-13.13-9.21-25.44-2.54-38.9
			c2.5-11.13,9.7-23.99,6.38-32.97c-4.83-13.02-0.97-24.19-0.98-36.14c-0.26-4.85-0.52-9.69-0.77-14.54c0.1-1.98,0.19-3.97,0.3-5.96
			C1876.4,2408.14,1876.48,2406.48,1876.56,2404.82z"/>
		<path class="st5" d="M2536.84,4155.65c7.48-3.07,14.71-7.53,22.5-8.92c14.84-2.63,4.11-7.45,1.68-11.71
			c33.28,0.74,65.94,8.09,99.37,8.46c40.38,0.45,80.63,0.43,120.79-4.15c4.86,5.45,7.39,0.77,10.27-2.36
			c4.95-0.5,9.9-1.01,14.84-1.51c6.84,5.94,14.22,2.41,21.73,1.79c14.72-1.21,27.42-11.29,42.75-9.17
			c5.45,14.06-8.77,16.7-14.22,24.43c-31.09,13.42-63.91,19.82-97.41,22.25c-30.89,2.24-61.99,1.82-92.89,2.31
			c-29.15,0.46-58.5-7.13-87.64-11.9C2564.55,4162.86,2550.75,4158.88,2536.84,4155.65z"/>
		<path class="st5" d="M2099.75,4035.29c-2.38,0.01-4.75,0.01-7.12,0.01c-22.36-8.61-44.94,2.99-67.39-0.56
			c-0.39-0.06-1.11,1.97-1.68,3.02c-6.31-2.42-12.62-4.84-18.93-7.27c-10.75-12.05-25.29-9.68-39.05-10.29c0,0-0.51-0.22-0.52-0.23
			c-2.17-1.96-4.53-3.27-7.58-2.42c-15.25-3-29.34-12.62-45.92-8.11c-5.1,0.02-8.77-5.64-14.37-3.6
			c-16.1-10.57-34.57-12.26-53.01-14.09c-4.58-0.7-9.17-1.4-13.75-2.1c-0.11-1.69-0.21-3.38-0.32-5.07
			c2.75-15.08,9.08-19.91,25.28-13.65c11.55,4.46,25.44,3.19,38.31,3.86c18.79,0.98,34.75,9.99,51.71,16.57
			c22.33,8.66,46.77,8.1,70.06,13.31c16.49,3.68,31.22,10.75,46.75,16.04c8.44,2.87,14.49,4.45,20.52-2.85
			c16.88,4.85,18.83-10.96,26.38-19.02c1.92,8.2,6.34,16.73-4.89,22.34C2098.44,4024.05,2101.19,4030.53,2099.75,4035.29z"/>
		<path class="st3" d="M1141.33,3799.29c27.07,11.39,55.37,18.95,83.51,27.04c61.52,17.69,122.85,36.07,184.58,52.98
			c68.97,18.89,138.3,36.48,207.49,54.63c-1.77,4.55-8.64,1.41-9.98,6.61c-18.85-3.11-37.11-8.89-55.79-12.84
			c-19.6-4.15-38.93-10.69-58.2-16.51c-65.73-19.85-132.13-36.85-198.69-53.58c-53.36-13.41-106.21-29.33-158.34-46.92
			c-16.19-5.46-34.58-9.88-47.33-23.68c0,0,0.31-0.27,0.31-0.27C1107.72,3785.28,1123.39,3797.02,1141.33,3799.29z"/>
		<path class="st8" d="M1210.88,3556.23c-28.38,21.42-56.62,43.02-85.24,64.13c-7.29,5.38-13.87,11.21-19.6,18.13
			c-28.94,15.5-41.81,43.84-40.28,73.65c1.12,21.72,13.75,36.99,20.91,55.25c1.75,4.48,8.55,8.53-0.04,12.83
			c-8.55-2.04-16.56-5.19-23.06-11.38c-0.96-15.48-7.35-28.66-17.1-40.43c-2.67-1.56-5.34-3.13-8-4.69
			c8.22-18.03,10.73-37.07,10.01-56.68c0,0-0.26,0.51-0.25,0.51c3.4-0.82,4.24-3.38,4.41-6.41c5.74-6.03,10.73-13.09,17.35-17.93
			c50.17-36.79,99.9-74.21,151.93-108.41c0,0,0.45,0.5,0.45,0.5C1221.73,3544.02,1210.61,3547,1210.88,3556.23z"/>
		<path class="st6" d="M1923.05,3878.77c-0.08,13-11.2,11.13-18.14,11.46c-10.56,0.5-21.59-0.85-31.85-3.58
			c-34.04-9.04-68.97-13.67-103.26-21.67c-29.52-6.89-58.44-15.66-85.84-27.25c-30.83-13.04-59.53-31.16-91.1-43.23
			c-5.58-2.13-10.95-7.64-10.77-15.4c19.65,8.43,38.88,18.03,59.02,25.05c40.02,13.94,80.91,25.4,120.74,39.84
			C1814.12,3862.95,1868.79,3869.66,1923.05,3878.77z"/>
		<path class="st8" d="M2856.55,4152.51c5.45-7.73,19.67-10.37,14.22-24.43c4.96-3.4,9.92-6.81,14.88-10.21
			c65.52-27.27,124.3-65.02,176.43-113.12c3.09-2.85,6.08-5.8,10.62-6.12c0.01,2.03,0.01,4.05,0.02,6.08
			c-29.09,29.1-60.64,55.02-93.38,80.14c-28.77,22.08-59.36,39.66-91.1,56.14C2878.21,4146.21,2868.32,4151.98,2856.55,4152.51z"/>
		<path class="st5" d="M3288.86,3686.03c11.49-18.7,10.17-40.36,14.05-60.82c2.26-11.94-4.49-21.06-12.04-28.42
			c-18.13-17.67-36.37-35.21-56.66-50.65c-15.12-11.5-34.09-6.57-49.76-14.76c-5.53-2.89-12.7-2.54-17.89-6.97
			c33.06,2.57,65.91,7.66,95.94,21.83c36.65,17.3,50.83,48.71,43.74,96.34c-3.53,23.71-6.41,47.85-16.2,70.47
			c-9.44,21.8-21.01,41.95-37.31,59.3c0.65-0.52,0.78-1.14,0.39-1.86c-0.27-2.04-0.53-4.09-0.8-6.13
			c9.95-23.01,29.12-41.51,33.09-67.45c1-1.47,2-2.95,3.01-4.42C3288.56,3690.34,3288.71,3688.18,3288.86,3686.03z"/>
		<path class="st6" d="M1968.99,1159.51c3.82,16.48-2.87,32.02-6.21,47.29c-14.1,64.51-22.73,130.16-40.38,193.9
			c-1.87,6.76-3.03,14.17-8.95,19.2c-0.55-1.45-1.1-2.89-1.66-4.34c0.26-2.14,0.52-4.29,0.78-6.43c3.79-2.18,3.77-4.58,0.43-7.19
			c2.01-31.99,12.35-62.5,16.72-94.12c4.45-32.18,10.93-64.09,16.52-96.12c8.93-2.38,6.99-11.11,9.93-16.98
			C1961.82,1183.48,1958.5,1168.99,1968.99,1159.51z"/>
		<path class="st6" d="M2024.89,858.77c12.48,16.32,1.66,32.68-0.34,48.82c-6.03,48.8-21.23,95.8-29.27,144.23
			c-0.57,3.45-3.59,4.41-6.66,4.92c-2.35-10.84,3.68-21.82-0.56-32.63c0.26-2.34,0.51-4.67,0.77-7.01c2.9-1.33,2.32-2.46-0.2-3.48
			c3.23-5.67,3.44-11.93,3.59-18.21c5.58-3.92,3.86-9.48,3.35-14.78c0.26-2.2,0.52-4.39,0.77-6.59c4-5.55,9.63-10.82,3.12-18.17
			c0.38-3.47,0.76-6.94,1.14-10.4c3.42-3.22,7.95-6.22,2.16-11.21c0.56-3.48,1.12-6.96,1.68-10.44c2.44-2.23,2.77-4.95,1.85-7.96
			c0.33-2.18,0.65-4.35,0.98-6.53c2.73-5.8,8.49-11.14,2.77-18.23c0.41-5.9,0.83-11.8,1.24-17.71c2.46-2.15,2.78-4.88,2.18-7.88
			c0.17-1,0.46-1.96,0.86-2.89C2017.84,861.34,2021.37,860.05,2024.89,858.77z"/>
		<path class="st7" d="M1988.06,1024.1c4.24,10.81-1.79,21.79,0.56,32.63c-0.22,2.27-0.45,4.54-0.66,6.81
			c-2.55,2.02-3.12,4.72-2.67,7.77c-1.4,9.3-2.79,18.6-4.18,27.9c-4.54,8.09-6.33,16.87-6.63,26.04c-0.19,3.24-0.37,6.48-0.55,9.73
			c-1.02,1.57-2.04,3.13-3.06,4.7c-0.2,2.17-0.39,4.34-0.58,6.51c-3.31,2.36-3.68,4.98-0.67,7.88c-0.19,1.82-0.39,3.65-0.6,5.46
			c-10.5,9.47-7.19,23.96-12.81,35.2c-2.94,5.87-1,14.6-9.93,16.98c9.32-58.53,26.26-115.61,33.12-174.61
			C1980.03,1031.53,1983.33,1027.21,1988.06,1024.1z"/>
		<path class="st6" d="M1606.93,3940.55c1.34-5.2,8.22-2.06,9.98-6.61c46.27,10.43,93.05,18.38,138.98,30.68
			c24.73,6.62,49.31,13.95,74.23,19.96c0.1,1.69,0.21,3.38,0.32,5.07c-10.37,4.41-22.83,5.87-31.08,0.27
			c-24.71-16.76-52.91-19.76-80.75-25.36C1681.28,3957.05,1644.14,3948.6,1606.93,3940.55z"/>
		<path class="st6" d="M1063.58,3768.83c6.5,6.19,14.51,9.34,23.07,11.37c0.75,2.18,1.5,4.37,2.24,6.56c0,0-0.31,0.27-0.31,0.27
			c-34.47-3.03-55.59-25.92-72.71-52.09c-6.38-9.75-5.92-24.32,4.05-35.03c1.21,1.9,2.42,3.79,3.63,5.69
			c-9.06,18.9-5.71,27.72,17.16,45.15C1045.2,3760.71,1055.23,3763.71,1063.58,3768.83z"/>
		<path class="st7" d="M1405.71,3448.81c1.02-12.93,2.05-25.85,3.07-38.78c2.11-1.87,3.94-4.37,6.39-5.48
			c8.84-3.98,20.42-13.3,26.95-6.88c7.28,7.15-7.11,13.54-10.53,21.11c-2.43,5.39-4.33,10.77-5.91,16.37
			c-2.26,2.1-4.53,4.2-6.8,6.31C1414.49,3443.91,1410.1,3446.36,1405.71,3448.81z"/>
		<path class="st5" d="M1023.54,3705.59c-1.21-1.9-2.42-3.79-3.63-5.69c1.18-1.52,2.35-3.05,3.53-4.56
			c10.78-0.98,13.13-9.05,14.84-17.65c0.9-1.1,1.79-2.2,2.67-3.29c-0.02,0.01,0.74-0.87,0.74-0.87c0.44-4.08,2.92-6.02,6.8-6.49
			c0.72,19.6-1.79,38.64-10.01,56.68C1021.22,3727.77,1025.05,3714.49,1023.54,3705.59z"/>
		<path class="st10" d="M2023.56,4037.76c0.57-1.05,1.29-3.08,1.68-3.02c22.45,3.55,45.02-8.05,67.39,0.56
			c-3.2,5.62-2.37,9.64,4.18,12.08c4.59,1.71,10.82,1.88,10.78,9.17c-2.19-0.29-4.38-0.58-6.58-0.87
			c-20.82-7.25-41.5-15.06-64.06-14.77C2033.22,4036.76,2028.1,4038.5,2023.56,4037.76z"/>
		<path class="st8" d="M1315.73,3470.4c-23.58,22.15-47.76,43.42-79.41,53.65C1261.21,3503.83,1287.52,3485.71,1315.73,3470.4z"/>
		<path class="st7" d="M2024.89,858.77c-3.52,1.28-7.04,2.57-10.57,3.86c-2.12-13.58,11.06-13.68,17.61-19.09
			c17.78-14.67,39.16-20.96,61.88-23.04c-11.64,13.17-31.44,7.68-43.84,19.1C2038.09,841.38,2035.69,855.56,2024.89,858.77z"/>
		<path class="st0" d="M1374,3380.12c15.89-12.24,35.78-15.97,53.23-24.89c4.19,3.65,9.81,7.35-0.14,10.77
			c-17.27,5.94-33.81,14.29-52.39,15.89C1374.86,3381.14,1374.62,3380.55,1374,3380.12z"/>
		<path class="st3" d="M2589.64,2006.38c-7.99-1.13-8.43-8.66-8.88-13.52c-1.5-16.33-10.95-29.48-15.91-44.35
			c8.24-5.34,13.3-6.21,14.93,6.49C2582,1972.26,2590.63,1988.4,2589.64,2006.38z"/>
		<path class="st7" d="M2165.88,813.42c-21.23,7.97-42.89,11.42-65.38,6.3C2121.69,811.35,2143.64,810.97,2165.88,813.42z"/>
		<path class="st3" d="M2122.03,3566c7.43-5.87,15.98-2.44,23.96-2.54c29.6-0.35,59.2-0.21,88.8,0c5.69,0.04,11.94-2.05,16.88,2.85
			C2208.46,3568.03,2165.25,3567.62,2122.03,3566z"/>
		<path class="st11" d="M2287.87,2009.92c-39.15,6.64-78.55,2.78-117.86,2.89c-4.16,0.01-8.32-0.09-12.48-0.14
			c15.8-7.16,32.31-1.88,48.45-2.42C2233.25,2009.36,2260.57,2009.96,2287.87,2009.92z"/>
		<path class="st10" d="M2036.95,4040.9c22.55-0.28,43.24,7.53,64.06,14.77C2078.27,4056.77,2057.38,4049.85,2036.95,4040.9z"/>
		<path class="st11" d="M2603.89,2063.7c-7.48-18.52-12.46-37.63-13.66-57.64C2604.46,2022.99,2602.33,2043.78,2603.89,2063.7z"/>
		<path class="st3" d="M2258.93,3154c-33.65,4.8-67.29,5.31-100.91-0.33C2191.66,3153.78,2225.3,3153.89,2258.93,3154z"/>
		<path class="st5" d="M1418.88,3441.46c2.27-2.1,4.53-4.21,6.8-6.31c1.22,9.81-4.28,18.12-6.11,27.24
			c-8.83-0.82-8.55,13.17-18.12,11.14C1407.25,3462.84,1413.07,3452.15,1418.88,3441.46z"/>
		<path class="st3" d="M1625.08,3045.35c-19.39-2.97-38.02-7.45-50.01-25.12C1592.24,3027.6,1609.5,3034.82,1625.08,3045.35z"/>
		<path class="st11" d="M2161.38,2387.64c29.03,0.06,58.07,0.11,87.1,0.17C2219.44,2392.28,2190.4,2392.98,2161.38,2387.64z"/>
		<path class="st10" d="M2399.28,2397.42c-7.57,11.13-0.42,25.49-8.05,36.61c-1.85-0.01-3.71-0.03-5.57-0.04
			c-0.72-12.36,3.83-23.64,7.22-35.16C2395.06,2398.52,2395.95,2392.44,2399.28,2397.42z"/>
		<path class="st10" d="M1844.18,3991.75c18.43,1.84,36.9,3.52,53.01,14.09C1879.04,4002.95,1859.51,4005.26,1844.18,3991.75z"/>
		<path class="st0" d="M1106.83,3925.66c-14.43-0.72-28.15-3.59-39.55-13.29C1082.01,3912.23,1095.63,3915.34,1106.83,3925.66z"/>
		<path class="st8" d="M1358.67,3440.95c-7.47,11.96-17.81,19.81-31.95,22.19C1334.89,3452.18,1344.76,3443.66,1358.67,3440.95z"/>
		<path class="st10" d="M1911.56,4009.45c16.58-4.51,30.67,5.1,45.9,8.1c-0.02,0,0.14,1.71,0.14,1.71
			C1941.47,4019.68,1926.11,4016.46,1911.56,4009.45z"/>
		<path class="st3" d="M1743.75,3092.08c-17.2,1.07-32.01-5.37-45.96-14.55C1714.21,3078.92,1728.96,3085.55,1743.75,3092.08z"/>
		<path class="st10" d="M1965.58,4020.21c13.76,0.6,28.3-1.77,39.05,10.29C1989.89,4033.63,1978.3,4024.77,1965.58,4020.21z"/>
		<path class="st3" d="M1783.55,3102.83c-14.08,0.31-28.31,1.17-39.24-10.38C1757.94,3093.81,1770.94,3097.59,1783.55,3102.83z"/>
		<path class="st6" d="M1038.27,3677.69c-1.71,8.6-4.05,16.67-14.84,17.65C1025.41,3686.95,1030.44,3681.15,1038.27,3677.69z"/>
		<path class="st6" d="M2179.77,3882.89c11.97-4.47,23.91-4.9,35.79,0.31C2203.61,3884.77,2191.68,3884.96,2179.77,3882.89z"/>
		<path class="st7" d="M1455.9,3567.39c0.05,12.1,1.67,24.32-2.64,36.1C1452.26,3591.32,1450.28,3579.08,1455.9,3567.39z"/>
		<path class="st7" d="M2247.55,1993.92c12.06-3.91,24.4-2.44,36.69-1.95C2272.24,1997.01,2259.89,1995.43,2247.55,1993.92z"/>
		<path class="st7" d="M1999.45,955.86c6.51,7.35,0.88,12.62-3.12,18.17C1995.86,967.72,1993.93,961.15,1999.45,955.86z"/>
		<path class="st7" d="M2136.57,1991.91c9.79-0.31,19.66-1.96,29.19,1.84C2155.9,1995.23,2146.02,1996.97,2136.57,1991.91z"/>
		<path class="st7" d="M2129.02,3132.37c9.94-1.37,19.85-1.72,29.67,0.89C2148.7,3136.15,2138.79,3136.64,2129.02,3132.37z"/>
		<path class="st8" d="M1236.36,3524.03c0.98,4.3-1.89,7.29-3.61,10.68c-3.46,0.19-6.92,0.39-10.38,0.58c0,0-0.45-0.5-0.45-0.5
			C1225.36,3529.36,1230.63,3526.4,1236.36,3524.03z"/>
		<path class="st7" d="M2265.29,3134.09c8.46-4.2,17.41-2.44,26.24-2.16C2283.19,3137.54,2274.21,3135.43,2265.29,3134.09z"/>
		<path class="st7" d="M2010.03,891.09c5.72,7.09-0.04,12.43-2.77,18.23C2006.58,903,2004.99,896.54,2010.03,891.09z"/>
		<path class="st7" d="M1911.8,1415.56c0.55,1.45,1.1,2.9,1.66,4.34c-0.88,3.8,0.25,8.4-4.26,10.77
			C1904.97,1424.76,1909.69,1420.38,1911.8,1415.56z"/>
		<path class="st7" d="M1908.1,1437.18c2.64,6.29-0.07,11.26-3.95,15.94C1901.39,1446.8,1903.51,1441.68,1908.1,1437.18z"/>
		<path class="st7" d="M2002.75,934.25c5.79,4.99,1.25,7.99-2.16,11.21C1999.12,941.3,1998.8,937.37,2002.75,934.25z"/>
		<path class="st8" d="M1326.58,3463.27c-1.01,6.22-6,6.39-10.69,7.01C1318.58,3466.62,1322.29,3464.51,1326.58,3463.27z"/>
		<path class="st5" d="M3163.04,3523.78c-6.05-0.66-12.71,2.48-17.99-2.91C3151.17,3521.08,3157.85,3517.81,3163.04,3523.78z"/>
		<path class="st7" d="M1995.56,980.63c0.51,5.29,2.23,10.86-3.35,14.78C1992.1,990.2,1990.8,984.73,1995.56,980.63z"/>
		<path class="st7" d="M1913.01,1401.94c3.34,2.61,3.36,5.01-0.43,7.19C1909.65,1406.54,1910.47,1404.19,1913.01,1401.94z"/>
		<path class="st3" d="M1697.47,3077.14c-4.03,0.46-8.36,1.83-10.45-3.48C1690.42,3075.05,1695.55,3071.27,1697.47,3077.14z"/>
		<path class="st7" d="M2158.33,3587.96c-3.91,1.22-7.77,1.21-11.54-0.55C2150.77,3584.86,2154.63,3584.72,2158.33,3587.96z"/>
		<path class="st7" d="M2006.28,915.85c0.92,3.01,0.59,5.73-1.85,7.96C2002.87,920.65,2003.65,918.03,2006.28,915.85z"/>
		<path class="st12" d="M1374,3380.12c0.62,0.43,0.86,1.02,0.7,1.77c-1.8,0.41-3.59,0.81-5.38,1.21
			C1370.88,3382.11,1372.44,3381.11,1374,3380.12z"/>
		<path class="st3" d="M1791.4,3106.27c-3.12,0.38-5.94,0.03-7.52-3.2C1786.9,3102.91,1790.28,3101.94,1791.4,3106.27z"/>
		<path class="st3" d="M1640.02,3052.5c-3.01,0.18-5.9,0.1-7.36-3.23C1635.63,3049.17,1638.75,3048.73,1640.02,3052.5z"/>
		<path class="st7" d="M2013.46,865.51c0.6,2.99,0.27,5.73-2.18,7.88C2010.11,870.24,2010.8,867.6,2013.46,865.51z"/>
		<path class="st3" d="M1038.38,3610.58c1.59-3.15,4.24-4.09,7.57-3.6C1044.68,3610.82,1041.28,3610.18,1038.38,3610.58z"/>
		<path class="st7" d="M1454.21,3616.79c0.53,2.59,1.06,5.19,1.59,7.78C1453.15,3622.41,1452.54,3619.83,1454.21,3616.79z"/>
		<path class="st10" d="M1957.61,4019.26c0,0-0.16-1.71-0.14-1.71c3.07-0.84,5.43,0.46,7.6,2.43
			C1962.58,4019.74,1960.1,4019.5,1957.61,4019.26z"/>
		<path class="st5" d="M1052.64,3661.13c-0.17,3.03-1.01,5.59-4.41,6.41C1048.28,3664.43,1049.78,3662.31,1052.64,3661.13z"/>
		<path class="st7" d="M3072.73,4004.72c-0.01-2.03-0.01-4.05-0.02-6.08c0,0-0.17,0.15-0.17,0.15c1.21-0.03,2.43-0.07,3.64-0.1
			c0,0,1.14,0.85,1.15,0.85C3076.54,4001.93,3075.88,4004.43,3072.73,4004.72z"/>
		<path class="st6" d="M1041.68,3673.52c0,0-0.75,0.88-0.74,0.87c0.02-0.01-0.38-0.99-0.38-0.99L1041.68,3673.52z"/>
		<path class="st3" d="M1049.65,3604.19c0.34-2.49,1.67-3.61,4.22-3.02C1052.47,3602.18,1051.06,3603.18,1049.65,3604.19z"/>
		<path class="st12" d="M1179.38,3946.13c0,0-0.99,0.52-0.99,0.51s-1.44,0.25-1.44,0.25s-1.29-0.81-1.29-0.81
			C1176.9,3946.1,1178.14,3946.12,1179.38,3946.13z"/>
		<path class="st9" d="M1204.15,3488.31c0.84-2.06,2.16-2.99,4.35-1.81C1207.06,3487.1,1205.61,3487.7,1204.15,3488.31z"/>
		<path class="st3" d="M1574.96,3020.16c-1.32,0.06-2.64,0.12-3.96,0.19c0.84-0.94,1.69-1.88,2.53-2.81
			C1574.01,3018.41,1574.49,3019.28,1574.96,3020.16z"/>
		<path class="st3" d="M1632.26,3048.96c-1.17-0.81-2.34-1.61-3.51-2.42C1631.14,3045.57,1631.97,3046.87,1632.26,3048.96z"/>
		<path class="st7" d="M1988.63,1013.61c2.52,1.02,3.1,2.15,0.2,3.48C1988.25,1015.96,1988.18,1014.8,1988.63,1013.61z"/>
		<path class="st8" d="M1362.16,3437.85c-1.24,1.13-2.48,2.26-3.71,3.39C1359.68,3440.11,1360.92,3438.98,1362.16,3437.85z"/>
		<path class="st12" d="M1632.48,2207.46c0.47,0.31,0.94,0.61,1.41,0.92c-0.55-0.23-1.09-0.46-1.64-0.69
			C1632.25,2207.69,1632.48,2207.46,1632.48,2207.46z"/>
		<path class="st13" d="M1419.83,3287.77c-0.46,1.13-1.26,1.91-2.39,2.34C1418.24,3289.33,1419.04,3288.55,1419.83,3287.77z"/>
		<path class="st10" d="M2093.68,2983.75c1.01-5.69,3.21-9.32,8.38-8.43c19.48,3.37,33.58,19.02,52.7,23.49
			c1.88,0.44,2.9,3.8,1.27,6.19c-1.83,2.7-4.52,4.02-7.68,2.67c-5.47-2.35-10.73-5.19-16.22-7.48c-8.42-3.52-15.3-10.81-26.51-6.73
			C2098.92,2995.9,2096.42,2987.94,2093.68,2983.75z"/>
		<path class="st12" d="M2385.66,2433.98c1.86,0.02,3.72,0.03,5.57,0.04c4.89,8.32,9.97,16.64,1.64,25.81
			c-2.26,2.49-3.69,6.98-8.12,5.12c-3.54-1.49-5.24-5.81-4.48-8.94C2382.03,2448.67,2380.27,2440.41,2385.66,2433.98z"/>
		<path class="st4" d="M2323.69,2034.92c2.54,42,5.07,84,7.61,125.99c-6.7,0.99-5.67,9.4-10.74,12.29
			c-11.79-21.62-14.61-22.34-29.47-8.16c-1.26-1.43-2.53-2.87-3.79-4.3c5.66-5.48,1.52-6.39-3.27-7c-1.12-0.15-2.25-0.24-3.39-0.28
			c-1.48-23.3-19.01-16.87-32.68-17.6c0,0-0.1-0.12-0.1-0.12c0.07-3.08-0.64-5.77-3.65-7.31c1.42-9.5-10.61-15.16-7.22-25.23
			c6.5-7.4-0.49-12.27-3.36-17.91c0.05-2.39,0.09-4.78,0.14-7.17c8.67-2.36,16.98-5.77,10.91-16.76
			c-8.16-14.78-5.08-26.62,7.01-37.18c2.36,0.02,4.72,0.03,7.08,0.05c1.15,1.93,2.38,5.58,3.45,5.53
			C2282.94,2028.86,2303.15,2033.87,2323.69,2034.92z"/>
		<path class="st4" d="M2291.08,2165.04c14.86-14.17,17.67-13.45,29.47,8.16c5.07-2.9,4.04-11.3,10.74-12.29
			c4.97,4.95,5.11,12.53,2.21,16.44c-5.08,6.84-12.25,17.13-21.27,1.94c-3.88,7.02,4.74,13.84-3.25,20.09
			C2301.5,2188.65,2294.18,2178.05,2291.08,2165.04z"/>
		<path class="st4" d="M2247.96,2135.86c13.66,0.73,31.2-5.7,32.68,17.6c-7.06,3.52-16.37,4.61-15.43,16.75
			C2250.63,2161.7,2246.98,2149.89,2247.96,2135.86z"/>
		<path class="st4" d="M2251.68,2024.17c-12.1,10.56-15.17,22.4-7.01,37.18c6.07,11-2.24,14.41-10.91,16.76
			c-8.86-10.33-2.68-50.59,8.73-56.3C2246.04,2020.04,2249.31,2020.71,2251.68,2024.17z"/>
		<path class="st4" d="M2323.69,2034.92c-20.54-1.06-40.74-6.07-61.48-5.17c-1.07,0.05-2.29-3.6-3.45-5.53
			c19.1-8.82,38.08-1.01,57.08,0.58C2321.49,2025.28,2323.37,2029.76,2323.69,2034.92z"/>
		<path class="st4" d="M2233.62,2085.29c2.87,5.64,9.86,10.52,3.36,17.91C2234.36,2097.51,2227.77,2092.56,2233.62,2085.29z"/>
		<path class="st1" d="M2244.2,2128.43c3.02,1.54,3.73,4.23,3.65,7.31c-3.09-0.43-7.28,0.9-8.63-2.8
			C2237.81,2129.07,2241.74,2129.12,2244.2,2128.43z"/>
		<path class="st1" d="M2284.02,2153.75c4.79,0.6,8.93,1.51,3.27,7C2286.2,2158.41,2285.11,2156.08,2284.02,2153.75z"/>
		<path class="st7" d="M2079.15,887.6c2.05-8.95-11.3-19.73,3.24-27.2c1.33,5.57-2.08,12.12,4.15,20.05
			c0.41-12.99,3.8-22.77,13.97-24.7c16.95-3.2,34.57-1.58,51.7-1.52c16.39,0.05,32.91,2.8,49.27-0.31
			c10.12-1.93,20.26-2.08,30.18-0.88c9.63,1.17,20.34,3.97,12.02,18.01c-3.57,6.03-0.59,8.6,4.81,10.22
			c-11.08,6-23.12,8.82-35.52,9.34c-32.73,1.39-65.5,2.64-97.59-6.31c-1.64-0.19-3.27-0.37-4.9-0.56c-0.63-0.41-1.31-0.61-2.05-0.59
			c-4.84-2.37-9.65-5-15.32-2.64C2087.53,881.06,2085.68,888.92,2079.15,887.6z"/>
		<path class="st0" d="M2248.49,881.27c-5.4-1.62-8.38-4.19-4.81-10.22c8.32-14.04-2.39-16.84-12.02-18.01
			c-9.91-1.2-20.06-1.05-30.18,0.88c-16.36,3.11-32.87,0.36-49.27,0.31c-17.13-0.06-34.75-1.68-51.7,1.52
			c-10.17,1.92-13.56,11.71-13.97,24.7c-6.23-7.94-2.82-14.48-4.15-20.05c1.3-3.01,2.6-6.03,3.9-9.05
			c14.31-8.96,27.38-21.01,46.28-18.53c27.79-0.01,55.57-0.01,83.36-0.02c5.87,0.29,11.74,0.58,17.62,0.87
			c1.39,0.81,2.78,1.61,4.16,2.42c21.64,0.91,42.93,3.19,61.65,15.62c-10.63,11.04-22.9,19.75-36.99,25.84
			c-3.97-0.95-7.9-1.67-10.67,2.52C2250.6,880.39,2249.53,880.8,2248.49,881.27z"/>
		<path class="st5" d="M2465.22,1945.27c-28.86-0.69-31.13-3.75-25.29-31.26c4.24-19.98-3.33-39.81-8.38-58.14
			c-3.02-10.93-4.85-19.92-1.32-29.51c3.99-10.83,1.41-29.18,7.29-31.66c13.83-5.83,5.36-14.95,7.88-21.87
			c2.02-5.54-0.97-9.96-4.28-14.68c-18.71-26.69-27.89-55.16-14.65-87.35c1.08-2.64,1.53-5.89,1.15-8.71
			c-4.57-34.28-6.71-69.17-14.83-102.6c-7.83-32.22-10.55-65.53-14.18-97.55c-3.66-32.3-9.75-64.99-10.92-98.03
			c-0.99-28.12-9.74-55.9-13.98-83.99c-4.16-27.58-6.72-55.4-10.43-83.05c-4.9-36.49-10.49-72.88-15.29-109.39
			c-3.4-25.85-4.47-51.9-5.96-77.87c-1.38-23.91-1.66-48.52-5.93-72.49c-3.17-17.78-3.32-35.99-0.44-53.58
			c5.02-30.64,4.42-32.37-25.5-31.91c-3.6,0.06-7.19,0.05-10.79,0.08c-10.63,11.04-22.9,19.75-37,25.84
			c-2.87,3.74-6.75,3.19-10.66,2.51c-1.1,0.34-2.17,0.74-3.21,1.21c-11.08,6-23.12,8.82-35.52,9.34
			c-32.73,1.39-65.5,2.64-97.58-6.31c-1.93,2.39-3.5,1.58-4.91-0.56c-0.63-0.41-1.31-0.61-2.05-0.59c0.23,14.8,3.32,26.1,18.64,34.9
			c14.76,8.48,18.19,26.92,16.19,43.55c-1.85,15.48-2.97,30.42,0.18,45.88c3.11,15.27-9.31,29.99-4.62,44.92
			c8.64,27.49-8.59,51.69-8.23,76.81c0.51,35.55-2.64,71.04-1.22,106.71c0.92,23.22,4.36,46.69,1.7,71.01
			c-3.86,35.21-11.01,69.97-13.87,104.88c-2.15,26.19-3.03,54.01,3.48,81.24c3.2,13.39-0.91,28.96-0.39,43.82
			c0.44,12.51,1.25,24.41,4.4,36.37c0.6,2.28,1.71,5.38,0.73,6.99c-12.33,20.36,2.8,40.47,0.3,60.67c-0.29,2.35-0.86,5.59,0.35,7.05
			c18.86,22.65,9.62,54.7,26.26,78.05c1.28,1.8,2.6,5.42,1.73,6.63c-12.28,17.04-4.96,39.14-17.19,57.59
			c-9.88,14.9-19.49,32.54-16.48,54.52c1.95,14.2-11.53,27.64-15.14,42.93c-4.96,21.01-7.34,41.74-5.03,63.13
			c1.55,14.43-13.37,25.91-30.12,24.33c-10.73-1.02-22.73-6.39-31.04,5.98c32.12,7.13,64.63,10.7,97.53,10.78
			c9.79-0.31,19.66-1.96,29.19,1.84c27.26,1.78,54.52,1.28,81.79,0.17c12.05-3.91,24.4-2.44,36.69-1.95
			c43.44,0.36,85.72-7.93,127.92-16.97c25.19-5.4,51.15-8.11,73.74-22.12C2482.95,1939.93,2472.44,1945.45,2465.22,1945.27z
			 M2314.73,1903.2c-0.06-0.01-0.13-0.02-0.2-0.03C2314.59,1903.18,2314.66,1903.2,2314.73,1903.2z"/>
		<path class="st7" d="M2251.7,880.06c2.77-4.18,6.69-3.47,10.67-2.52C2259.49,881.28,2255.61,880.73,2251.7,880.06z"/>
		<path class="st8" d="M2110.48,883.74c1.63,0.19,3.26,0.37,4.9,0.56C2113.45,886.69,2111.89,885.88,2110.48,883.74z"/>
		<path class="st10" d="M2125.01,3793.62c-3.35-7.52-7.45-13.36-3.03-19.88c5.81-8.58,10.05,2.35,15.24,1.64
			c5.85-0.79,11.6-2.4,17.46-2.91c3.97-0.35,9.29-0.71,9.27,5.44c-0.02,5.71-3.82,5.9-8.8,5.28
			C2143.94,3781.8,2132.5,3780.94,2125.01,3793.62z"/>
		<path class="st12" d="M2090.59,3779.64c6.97,7.45,8.42,15.93,3.57,22.91c-3.28,4.73-10.15-0.15-14.53-2.32
			c-4.52-2.24-2.42-6.45,1.31-7.93C2086.5,3790.1,2085.28,3782.87,2090.59,3779.64z"/>
		<path class="st9" d="M2175.09,3735.56c4.04-0.24,5.96,2.4,5.81,5.33c-0.43,8.46-6.25,12.12-13.86,13.11
			c-3.16,0.41-6.29-1.33-4.69-5.15C2164.87,3742.87,2168.54,3737.57,2175.09,3735.56z"/>
		<path class="st6" d="M2528.45,2419.7c-2.15,3.75-6.01,4.48-9.23,3.17c-10.34-4.2-12.32,0.76-12.03,9.64
			c0.16,4.72-0.55,11.19-6.46,10.5c-6.88-0.81-8.75-8.25-7.47-13.82c3.47-15.19,12.58-26.03,28.14-30.51
			C2523.76,2405.69,2526.11,2412.7,2528.45,2419.7z"/>
		<path class="st6" d="M2528.45,2419.7c-2.35-7.01-4.69-14.02-7.04-21.02c17.43-3.71,18.31,9.32,20.89,20.62
			c-0.9,0.08-1.53,0.54-1.88,1.39C2536.43,2420.36,2532.44,2420.03,2528.45,2419.7z"/>
		<path class="st5" d="M2540.42,2420.69c0.34-0.85,0.97-1.31,1.88-1.39C2542.4,2420.75,2542.64,2422.38,2540.42,2420.69z"/>
		<path class="st6" d="M3001.74,3811.3c16.2,3.15,33.1,2.43,48.7,8.89c8.79,3.51,17.96,5.27,27.37,5.9c2.97,0.4,5.95,0.81,8.92,1.2
			c3.92,4.57,12.15,1.13,14.88,7.95c-17.93,3.92-34.6-3.9-51.28-7.39c-15.64-3.27-31.04-4.17-46.66-5.3
			c-6.09-7.06-14.84-2.58-21.96-5.06c1.17-2.48,2.32-4.95,3.48-7.43c3.36,0.37,6.73,0.73,10.06,1.09
			C2997.39,3811.19,2999.56,3811.25,3001.74,3811.3z"/>
		<path class="st6" d="M2885.65,4117.87c-4.96,3.4-9.92,6.81-14.88,10.21c-15.33-2.12-28.04,7.96-42.76,9.17
			c-7.51,0.62-14.89,4.14-21.73-1.79C2832.41,4128.11,2858.34,4119.86,2885.65,4117.87z"/>
		<path class="st7" d="M3101.61,3835.24c-2.73-6.82-10.96-3.39-14.88-7.95c16.42-4.23,31.07,3.71,47.47,5.72
			C3123.03,3844.1,3112.47,3843.29,3101.61,3835.24z"/>
		<path class="st6" d="M3077.81,3826.09c-9.41-0.62-18.58-2.39-27.37-5.9c8.66,0.29,17.33,0.59,25.98,0.9
			C3076.87,3822.77,3077.34,3824.43,3077.81,3826.09z"/>
		<path class="st6" d="M2791.45,4136.97c-2.88,3.14-5.41,7.81-10.27,2.36C2784.04,4136.11,2785.67,4127.53,2791.45,4136.97z"/>
		<path class="st6" d="M3252.31,3764.36c0.27,2.05,0.53,4.1,0.8,6.13c-2.24,0.99-5.24,1.84-6.1-0.81
			C3245.72,3765.69,3249.49,3765.15,3252.31,3764.36z"/>
		<path class="st8" d="M3076.18,3998.68c-1.21,0.03-2.43,0.07-3.64,0.1C3073.69,3996.46,3074.87,3995.35,3076.18,3998.68z"/>
		<path class="st6" d="M3288.41,3692.5c-1,1.47-2.01,2.94-3.01,4.42C3286.41,3695.44,3287.41,3693.97,3288.41,3692.5z"/>
		<path class="st5" d="M2551.81,4134.88c-1.68-0.86-3.37-1.72-5.06-2.58C2548.44,4133.16,2550.12,4134.02,2551.81,4134.88z"/>
		<path class="st5" d="M1088.88,3786.76c-0.74-2.19-1.49-4.37-2.24-6.56c8.58-4.29,1.78-8.35,0.03-12.82
			c-7.16-18.26-19.79-33.53-20.91-55.25c-1.53-29.81,11.34-58.15,40.28-73.65c-0.12,9.6,10.99,10.45,13.83,17.41
			c6.22,15.28,2.19,32.97,13.4,47.98c3.39,4.54-7.38,17.97-8.07,27.58c-1.46,20.45-5.27,42.2,14.28,57.89
			c2.98,2.39,3.05,6.29,1.85,9.95C1123.39,3797.02,1107.72,3785.28,1088.88,3786.76z"/>
		<path class="st0" d="M1403.75,3696.86c4.97-4.76,7.69-0.14,9.85,2.94c19.64,27.98,49.32,46.34,69.98,73.26
			c2.86,3.72,12.54,6.04,4.65,13.7c-27.62-22.59-51.59-48.85-75.95-74.75C1408.03,3707.49,1405.66,3702.42,1403.75,3696.86z"/>
		<path class="st10" d="M2109.12,3998.83c-7.55,8.06-9.5,23.87-26.38,19.02c-1.81-1.3-3.62-2.61-5.44-3.92
			c8.4-3.27,6.52-15.89,16.31-17.89c4.9,4.05,5.97,0.37,6.96-3.46C2105.34,3992.04,2107.74,3994.74,2109.12,3998.83z"/>
		<path class="st0" d="M1418.88,3441.46c-5.81,10.69-11.63,21.38-17.44,32.07c0,0,0.31-0.12,0.31-0.12
			c-4.01,1.1-5.37,3.51-3.65,7.42c0,0,0.23-0.23,0.23-0.23c-1.25,0.08-2.5,0.17-3.75,0.25c-2.32-0.04-4.64-0.07-6.96-0.11
			c2.92-12.4,12.07-21.29,18.09-31.94C1410.1,3446.36,1414.49,3443.91,1418.88,3441.46z"/>
		<path class="st10" d="M2097.15,3963.46c0,0,1.64,0.05,1.63,0.05c-0.93,7.31-6.68,14.39-1,21.97c-1.28,1.93-2.56,3.88-3.83,5.83
			C2080.37,3980.35,2081.84,3971.11,2097.15,3963.46z"/>
		<path class="st5" d="M1222.36,3535.29c3.46-0.19,6.92-0.39,10.38-0.58c-3.09,11.43-10.17,18.81-21.87,21.52
			C1210.61,3547,1221.73,3544.02,1222.36,3535.29z"/>
		<path class="st5" d="M2093.94,3991.32c1.28-1.95,2.56-3.9,3.83-5.83c0.93,2.37,1.86,4.73,2.79,7.09
			c-0.99,3.84-2.06,7.52-6.96,3.46C2093.72,3994.47,2093.83,3992.89,2093.94,3991.32z"/>
		<path class="st0" d="M2226.45,3972.17c-20.99-11.91-44.89-9.81-67.5-13.45c-28.82-4.64-58.55-4.67-86.85-11.18
			c-44.5-10.23-90.63-10.01-134.7-23.3c6.76-14.97,17.51-14.65,32.9-13.18c38.01,3.61,75.9,8.13,113.8,12.52
			c87.36,10.12,175,15.98,262.9,13.92c60.16-1.41,120.24-6.14,179.23-19.57c3.84-0.88,7.87-3.27,11.55,1.79
			c-33.12,21.11-74.22,14.99-111.81,31.07c15.53,10.48,27.67,2.17,39.27,1.36c39.85-2.79,80.78-2.89,119.05-12.74
			c65.15-16.78,131.47-32.39,192.1-62.36c34.95-17.28,66.19-42.09,98.91-63.8c21.89-14.53,43.48-29.52,65.1-44.45
			c5.92-4.09,11.51-6.77,17.33-0.08c-39.38,44.82-86.08,79.29-140.12,105.23c-51.89,24.9-105.11,45.99-159.76,63.44
			c-24.07,7.69-49.38,11.53-74.13,17.11c-4.46-2.57-8.49-3.08-11.33,2.3c-4.89,0.79-9.78,1.57-14.68,2.36
			c-2.78-3.43-5.13-3.18-7.04,0.83c-4.58,0.53-9.17,1.06-13.75,1.57c-6.28-2.29-12.53-4.43-15.15,4.8
			c-48.02,2.2-95.72,10.4-144.01,7.39c-1.23,0-2.46,0.01-3.68,0.01c-32.44-0.14-64.88-0.28-97.31-0.42c-3.5-0.06-7-0.13-10.5-0.19
			C2252.99,3972.8,2239.72,3972.49,2226.45,3972.17z"/>
		<path class="st6" d="M2985.19,3810.06c-1.15,2.48-2.31,4.96-3.48,7.43c-12.71,0.71-22.95-9.56-37.97-5.55
			C2952.43,3801.92,2969.72,3802.18,2985.19,3810.06z"/>
		<path class="st10" d="M2393.58,3991.06c-10.08,5.17-12.9,16.6-23.97,11.36c-4.11-1.95-9.17-7.72-5.2-11.15
			C2371.89,3984.79,2381.22,3988.05,2393.58,3991.06z"/>
		<path class="st5" d="M2172.66,4048.97c-11.14-1.39-22.27-2.79-32.76-7.14C2151.06,4030.62,2158.23,4032.18,2172.66,4048.97z"/>
		<path class="st5" d="M2133.22,4041.57c-5.13,0.05-10.59,1.77-14.81-2.87c0.52-3.69,1.42-7.31,6.19-6.91
			C2130.38,4032.28,2132.2,4036.68,2133.22,4041.57z"/>
		<path class="st7" d="M2521.76,3966.33c2.62-9.23,8.87-7.08,15.15-4.8C2533.42,3968.07,2527.31,3966.31,2521.76,3966.33z"/>
		<path class="st7" d="M2572.38,3956.78c2.83-5.37,6.87-4.86,11.33-2.3C2580.8,3959.54,2577.13,3960.85,2572.38,3956.78z"/>
		<path class="st5" d="M2288.2,4077.36c-3.2,0.49-6.05,0.1-7.82-3.05C2285.55,4068.76,2286.86,4073.1,2288.2,4077.36z"/>
		<path class="st5" d="M2197.75,4056.24c-2.88,0.12-5.56-0.24-7.31-2.92C2195.82,4046.92,2196.68,4051.85,2197.75,4056.24z"/>
		<path class="st7" d="M2550.67,3959.97c1.9-4.01,4.25-4.26,7.04-0.83C2555.75,3962.73,2553.44,3963.3,2550.67,3959.97z"/>
		<path class="st6" d="M3001.74,3811.3c-2.18-0.06-4.35-0.11-6.5-0.16C2997.48,3808.79,2999.66,3807.81,3001.74,3811.3z"/>
		<path class="st7" d="M2266.26,3973.12c3.5,0.06,7,0.13,10.5,0.19C2273.17,3978.24,2269.67,3978.46,2266.26,3973.12z"/>
		<path class="st7" d="M2374.07,3973.73c1.23,0,2.46-0.01,3.68-0.01C2376.53,3976.34,2375.31,3976.41,2374.07,3973.73z"/>
		<path class="st5" d="M2265.98,4070.86c-1.3-1.04-2.61-2.08-3.91-3.11C2263.37,4068.79,2264.67,4069.83,2265.98,4070.86z"/>
		<path class="st4" d="M2056.6,1197.02c-9.8,21.13-19.59,42.27-29.3,63.21c-8.84-1.71-3.89-10.39-9.09-12.86
			c5.93-48.9,13.53-97.55,18.14-146.67c4-42.59,12.36-84.78,19.13-127.09c4.24-26.48,8.84-52.91,16.41-78.72
			c11.69-2.98,15.84,1.65,14.85,13.39c-0.83,9.84-0.21,19.81-0.22,29.72c-6.11,52.38-12.51,104.73-18.22,157.15
			c-3.22,29.5-5.55,59.1-7.67,88.69C2060.28,1188.86,2059.36,1193.05,2056.6,1197.02z"/>
		<path class="st10" d="M2086.52,938c0.02-9.91-0.61-19.88,0.22-29.72c0.99-11.74-3.16-16.37-14.85-13.39
			c-0.47-5.3,2.91-6.77,7.25-7.3c6.53,1.33,8.39-6.53,13.96-7.09c0.03,14.34,0.2,28.68,0.02,43.02
			C2093.05,929.15,2095.07,936.09,2086.52,938z"/>
		<path class="st9" d="M2006.63,1639.29c-4.35-4.46-3.56-8.26,1.48-11.51C2010.13,1631.94,2009.8,1635.79,2006.63,1639.29z"/>
		<path class="st9" d="M2009.81,1614.25c-3.68-3.73-2.96-7.41,0.14-11.05C2009.9,1606.88,2009.86,1610.56,2009.81,1614.25z"/>
		<path class="st10" d="M1876.01,2415.76c0.26,4.85,0.52,9.69,0.78,14.54c-10.82,7.46-11.93,18.55-8.98,29.55
			c2.22,8.27,0.59,12.46-7.3,14.66c1.2-14.08-4.14-27.44-3.09-41.99C1858.46,2418.06,1865.05,2416.05,1876.01,2415.76z"/>
		<path class="st5" d="M1909.61,2717.58c-3.92,5.89-6.62,15.19-11.67,13.03c-8.53-3.65-21.96-4.34-23.21-16.48
			c-0.96-9.31,8.51-9.82,15.64-10.1C1900.39,2703.64,1904.11,2711.61,1909.61,2717.58z"/>
		<path class="st10" d="M1871.38,2499.4c-6.67,13.45,4.24,25.76,2.54,38.9c-0.21,1.26-0.42,2.52-0.62,3.78
			c-2.72,1.67-3.16,4.37-3.25,7.23c-3.07-0.46-6.6-1.61-6.53-4.85c0.46-21.52-10.49-42.51-2.97-64.31
			C1869.86,2483.36,1864.85,2494.63,1871.38,2499.4z"/>
		<path class="st10" d="M1938.68,2552.58c5.68,11.76,4.79,19.2-10.88,14.95c-15.94-4.33-34.26-0.87-47.5-14.2
			c6.96,0.27,14.09-0.35,20.82,1C1913.92,2556.9,1926.4,2558.48,1938.68,2552.58z"/>
		<path class="st14" d="M1938.68,2552.58c-12.28,5.9-24.76,4.32-37.56,1.75c-6.73-1.35-13.87-0.74-20.82-1
			c-3.42-1.34-6.84-2.68-10.26-4.02c0.09-2.85,0.53-5.55,3.26-7.22c18.22,8.01,38.61-2.46,56.82,6.52c0.83,0.41,3.35-2.6,5.08-4.02
			c0.76-0.02,1.49,0.11,2.19,0.38C1937.82,2547.5,1938.25,2550.04,1938.68,2552.58z"/>
		<path class="st12" d="M1871.38,2499.4c-6.53-4.78-1.53-16.05-10.84-19.25c-0.01-1.89-0.03-3.77-0.04-5.65
			c7.91-2.19,9.53-6.39,7.31-14.66c-2.95-11-1.85-22.09,8.98-29.55c0,11.95-3.85,23.11,0.97,36.14
			C1881.09,2475.41,1873.88,2488.28,1871.38,2499.4z"/>
		<path class="st10" d="M1850.74,2646.48c-16.26,2.88-26.36-11.79-41.78-12.21c-5.72-0.16-3.21-8.67-3.23-14.52
			C1824.59,2623.49,1837.69,2634.79,1850.74,2646.48z"/>
		<path class="st5" d="M1973.1,2747.42c-1.07,5.16-4.58,8.24-9.18,9.63c-4.51,1.37-9.11-0.63-9.4-5.23
			c-0.37-5.89,5.62-6.77,9.98-7.83C1967.69,2743.21,1971.67,2742.64,1973.1,2747.42z"/>
		<path class="st12" d="M1935.02,2516.97c-1.69-11.37,2.49-21.67,5.85-32.12C1945.39,2496.73,1943.47,2507.45,1935.02,2516.97z"/>
		<path class="st9" d="M1751.27,2615.04c-7.14-5.05-1.86-9.23,1.67-12.15c4.86-4.02,8.26-0.36,10.72,4.02
			C1762.43,2614.03,1757.17,2615.02,1751.27,2615.04z"/>
		<path class="st10" d="M1751.27,2615.04c5.89-0.02,11.15-1.01,12.39-8.12c1.6,4.54,10.49,8.08,6.11,12.25
			C1763.95,2624.73,1757.01,2618.94,1751.27,2615.04z"/>
		<path class="st5" d="M1804.6,2714.3c-0.63,3.18-2.33,5.7-5.62,6.06c-3.49,0.38-3.81-2.28-2.92-4.72c0.98-2.68,1.81-6.15,5.3-6.41
			C1804.62,2709,1804.68,2711.84,1804.6,2714.3z"/>
		<path class="st5" d="M1958.5,2629.7c1.03,1.29,3.15,2.85,3.59,4.8c0.6,2.64-1.65,4.19-4.24,4.06c-2.57-0.13-4.33-1.87-4.43-4.45
			C1953.31,2631.52,1954.75,2629.83,1958.5,2629.7z"/>
		<path class="st10" d="M1877.41,2387.4c4.83,3.49,5.14,7.1,0.27,10.83C1872.55,2394.75,1872.66,2391.13,1877.41,2387.4z"/>
		<path class="st5" d="M1964.27,2596.05c1.92,0.96,4.15,1.34,4.55,2.41c1,2.65-0.96,4.22-3.41,4.09c-1.28-0.07-3.12-1.43-3.49-2.6
			C1961.65,2599.07,1963.29,2597.58,1964.27,2596.05z"/>
		<path class="st5" d="M2003.26,2649.93c-2.62-0.42-5.69-0.31-5.47-4.28c0.02-0.41,0.71-1.1,1.12-1.12
			c3.97-0.22,3.87,2.84,4.29,5.46C2003.19,2649.99,2003.26,2649.93,2003.26,2649.93z"/>
		<path class="st12" d="M1876.56,2404.82c-0.08,1.66-0.17,3.32-0.25,4.98C1873.94,2408.02,1873.92,2406.35,1876.56,2404.82z"/>
		<path class="st0" d="M1370.93,3566.84c-4.45-0.75-7.64-3.13-7.89-7.99c-0.24-4.5,2.65-6.29,6.8-6.07
			c4.09,0.21,6.58,2.44,6.88,6.61C1377.01,3563.42,1375.59,3566.33,1370.93,3566.84z"/>
		<path class="st5" d="M1398.11,3480.83c-1.72-3.91-0.37-6.32,3.65-7.42C1402.5,3476.84,1401.04,3479.2,1398.11,3480.83z"/>
		<path class="st5" d="M1394.58,3480.86c1.25-0.08,2.5-0.17,3.75-0.25C1397.21,3482.57,1395.95,3482.55,1394.58,3480.86z"/>
		<path class="st7" d="M2215.93,832.79c-27.79,0.01-55.57,0.02-83.36,0.02C2160.36,827.93,2188.14,828.3,2215.93,832.79z"/>
		<path class="st7" d="M2237.71,836.08c-1.39-0.81-2.77-1.61-4.16-2.42C2234.94,834.47,2236.32,835.28,2237.71,836.08z"/>
		<path class="st6" d="M1974.48,1125.25c0.29-9.16,2.08-17.95,6.63-26.04C1980.85,1108.38,1985.14,1118.71,1974.48,1125.25z"/>
		<path class="st6" d="M1985.29,1071.31c-0.45-3.05,0.12-5.75,2.67-7.77C1994.22,1068.58,1990.2,1070.09,1985.29,1071.31z"/>
		<path class="st6" d="M1969.6,1154.06c-3.01-2.9-2.64-5.51,0.67-7.88C1974.78,1149.21,1974.26,1151.81,1969.6,1154.06z"/>
		<path class="st6" d="M1970.86,1139.67c1.02-1.56,2.04-3.13,3.06-4.7C1972.9,1136.54,1971.88,1138.1,1970.86,1139.67z"/>
		<path class="st12" d="M1935.2,2544.58c-1.73,1.42-4.25,4.43-5.08,4.02c-18.21-8.98-38.61,1.49-56.82-6.52
			c0.2-1.26,0.41-2.52,0.62-3.78c11.96,2.04,23.18-3.98,34.95-3.33C1918.53,2535.52,1929.16,2533.96,1935.2,2544.58z"/>
		<path class="st6" d="M1023.54,3705.59c1.51,8.9-2.32,22.18,14.94,18.12c2.67,1.56,5.33,3.12,7.99,4.69
			c-1.93,7.45-3.85,14.89-5.77,22.34C1017.83,3733.31,1014.47,3724.49,1023.54,3705.59z"/>
		<path class="st5" d="M1040.7,3750.74c1.92-7.44,3.84-14.89,5.77-22.34c9.76,11.76,16.15,24.95,17.11,40.43
			C1055.23,3763.71,1045.2,3760.71,1040.7,3750.74z"/>
	</g>
</g>
</svg>
